<?xml version="1.0" encoding="utf-8" ?>
<svg xmlns="http://www.w3.org/2000/svg" xmlns:xlink="http://www.w3.org/1999/xlink" width="1024" height="683">
	<path fill="#13C2A9" transform="scale(0.666667 0.666992)" d="M1283.47 229.449L1286.09 236.248C1288.53 240.799 1293.68 241.802 1298.23 243.256C1295.56 244.112 1292.65 244.911 1290.18 246.275C1285.73 248.737 1284.95 254.348 1283.6 258.883C1282.32 255.886 1281.87 252.031 1280.19 249.334C1278.02 245.864 1271.92 244.452 1268.3 243.369L1275.8 240.804C1280.57 238.665 1281.7 233.933 1283.47 229.449Z"/>
	<path fill="#0C747C" transform="scale(0.666667 0.666992)" d="M308.351 174.102C310.619 173.917 313.363 173.749 315.573 174.309C319.201 175.229 322.375 177.872 324.258 181.064C326.155 184.28 326.626 188.593 325.602 192.173C324.159 197.216 319.979 199.605 315.733 201.979L315.532 202.003C313.131 202.388 311.021 202.704 308.616 202.12C305.128 201.273 302.189 198.606 300.427 195.538C298.318 191.864 298.261 187.58 299.393 183.603C300.863 178.436 303.872 176.567 308.351 174.102Z"/>
	<path fill="#13C2A9" transform="scale(0.666667 0.666992)" d="M113.355 606.991C115.999 606.813 118.941 607.101 121.5 607.815C124.97 608.783 127.88 611.601 129.609 614.683C131.682 618.377 132.364 622.322 131.07 626.403C129.426 631.585 125.155 634.248 120.546 636.544C117.452 636.935 114.743 637.149 111.75 636.081C108.125 634.789 105.165 631.926 103.583 628.443C101.842 624.61 101.678 619.068 103.309 615.176C105.162 610.753 109.13 608.641 113.355 606.991Z"/>
	<path fill="#13C2A9" transform="scale(0.666667 0.666992)" d="M1235.52 148.161C1236.87 150 1237.13 152.715 1237.64 154.928C1238.7 159.483 1239.63 163.929 1242.2 167.917C1247.73 176.458 1258.28 178.054 1267.47 180.156C1260.44 181.986 1252.24 183.507 1246.08 187.462C1238.62 192.242 1237.77 200.929 1236.03 208.926L1235.73 209.114L1234.88 208.926C1233.63 203.262 1232.35 197.046 1229.45 191.975C1225.18 184.518 1212.13 182.254 1204.45 180.126C1209.98 178.205 1216.1 177.106 1221.38 174.581C1232.56 169.226 1232 158.279 1235.52 148.161Z"/>
	<path fill="#13C2A9" transform="scale(0.666667 0.666992)" d="M351.634 109.317L357.713 123.617C358.307 124.986 359.107 127.751 359.984 128.832C360.738 129.762 364.158 130.657 365.35 131.065L380.759 136.859C376.771 138.675 372.574 140.528 368.379 141.814C365.769 142.613 362.107 143.045 359.731 144.239C358.586 144.816 358.443 147.436 358.163 148.626C356.822 154.328 354.366 159.684 352.125 165.077L351.708 165.084C348.386 163.068 345.711 150.375 344.733 146.47L322.916 136.706L339.532 130.034C340.419 129.65 343.337 128.712 343.867 128.141C345.134 126.777 346.274 121.892 346.942 120.033C348.261 116.365 349.975 112.841 351.634 109.317Z"/>
	<path fill="#13C2A9" transform="scale(0.666667 0.666992)" d="M1416.22 564.959C1419.52 564.777 1422.83 564.694 1425.95 565.959C1431.5 568.211 1435.24 572.764 1437.46 578.206C1439.11 582.264 1438.83 586.374 1437.09 590.359C1434.4 596.49 1429.22 599.54 1423.24 601.922C1419.56 602.049 1416.4 601.892 1412.93 600.567C1408.2 598.756 1404.37 594.821 1402.41 590.176C1400.47 585.613 1400.83 580.232 1402.82 575.733C1405.35 569.995 1410.68 567.135 1416.22 564.959Z"/>
	<path fill="#0A9A90" transform="scale(0.666667 0.666992)" d="M1342.6 308.444C1346.69 308.22 1350.8 308.005 1354.75 309.325C1360.33 311.192 1364.12 315.708 1366.6 320.881C1369.07 326.025 1369.16 331.89 1367.15 337.207C1364.52 344.188 1358.67 347.424 1352.19 350.261C1348.57 350.681 1344.48 350.795 1340.95 349.789C1336.13 348.418 1331.07 344.062 1328.8 339.625C1326.09 334.316 1325.49 327.465 1327.57 321.829C1330.12 314.897 1336.17 311.249 1342.6 308.444Z"/>
	<path fill="#13C2A9" transform="scale(0.666667 0.666992)" d="M126.559 669.299C132.345 669.383 138.199 670.317 143.274 673.258C150.486 677.437 155.012 684.467 156.965 692.492C158.725 699.724 156.552 707.992 152.649 714.174C148.427 720.859 141.553 723.886 134.106 725.525C126.74 725.573 120.207 725.205 113.814 721.126C107.663 717.2 104.017 711.08 102.475 704.047C100.749 696.17 101.791 688.434 106.273 681.621C111.047 674.362 118.335 671.035 126.559 669.299Z"/>
	<path fill="#00313B" transform="scale(0.666667 0.666992)" d="M1379.59 665.788C1381.85 665.039 1383.32 665.211 1385.62 665.704L1386.85 666.658C1391.44 670.536 1392.38 678.563 1394.79 683.956C1396.67 688.174 1399.02 691.854 1401.81 695.516C1404.62 699.208 1407.65 703.047 1411.26 705.988C1417.37 710.978 1425.03 714.357 1429.21 721.301C1430.23 730.287 1418.24 735.509 1412.25 740.559C1408.06 744.085 1404.26 748.117 1401.15 752.627C1398.3 756.75 1395.82 761.23 1394.08 765.937C1392.58 770.02 1391.58 775.58 1388.98 779.065C1387.33 781.29 1385.19 781.715 1382.62 782.172L1381.34 782.016C1379.17 781.652 1376.44 780.342 1375.17 778.457C1373.17 775.495 1372.43 770.405 1371.23 766.952C1369.44 761.82 1366.79 756.604 1363.74 752.104C1360.11 746.753 1355.78 741.735 1350.23 738.3C1344.64 734.836 1337.43 734.123 1333.51 728.34C1332.12 726.288 1331.92 724.191 1332.51 721.812C1334.14 715.277 1346.95 711.045 1352.25 707.422C1355.34 705.311 1357.99 702.722 1360.44 699.908C1365.69 693.876 1369.7 686.844 1372.12 679.214C1373.13 676.026 1373.86 672.153 1375.55 669.265C1376.45 667.718 1378.11 666.716 1379.59 665.788Z"/>
	<path fill="#AFF8F1" transform="scale(0.666667 0.666992)" d="M1382.96 698.865C1390.15 708.619 1397.54 716.318 1407.31 723.467C1405.3 726.825 1398.07 730.395 1394.91 733.38C1390.63 737.427 1387.4 742.089 1384.12 746.944L1382.24 747.82C1375.32 738.379 1368.7 731 1359.58 723.59C1369.4 716.697 1376.05 708.506 1382.96 698.865Z"/>
	<path fill="#0C747C" transform="scale(0.666667 0.666992)" d="M267.515 316.627C283.524 296.402 298.52 275.99 316.408 257.299C353.066 218.995 394.692 185.177 440.236 157.944C477.132 135.882 516.751 118.669 557.442 105.021C596.704 91.8521 638.015 81.7729 679.194 76.8751C752.514 68.1545 827.047 69.7458 899.595 84.1206C996.954 103.411 1089.77 146.272 1167.49 207.979C1207.31 239.599 1241.41 276.713 1272.78 316.557L1272.8 316.768C1276.32 321.005 1279.8 325.191 1282.25 330.168C1277.76 330.532 1271.42 328.507 1266.85 327.632C1257.76 327.085 1248.74 325.638 1239.6 325.603C1231.31 325.572 1220.91 327.362 1212.77 329.136C1210.99 325.415 1207.34 321.995 1204.65 318.881L1185.02 297.25C1124.47 233.611 1050 185.636 967.161 156.36C816.967 103.281 644.816 115 501.616 183.734C443.427 211.664 390.766 252.271 346.623 299.151L323.711 325.019C318.649 331.078 314.089 337.255 308.6 342.96L267.515 316.627Z"/>
	<path fill="#0A9A90" transform="scale(0.666667 0.666992)" d="M1272.8 316.768C1276.32 321.005 1279.8 325.191 1282.25 330.168C1277.76 330.532 1271.42 328.507 1266.85 327.632L1267.5 326.666C1269.09 327.184 1269.96 327.18 1271.62 326.976C1273.32 325.49 1274.66 324.379 1275.5 322.204C1274.15 320.602 1272.98 319.381 1272.82 317.195L1272.8 316.768Z"/>
	<path fill="#00313B" transform="scale(0.666667 0.666992)" d="M308.6 342.96C314.089 337.255 318.649 331.078 323.711 325.019L346.623 299.151C390.766 252.271 443.427 211.664 501.616 183.734C644.816 115 816.967 103.281 967.161 156.36C1050 185.636 1124.47 233.611 1185.02 297.25L1204.65 318.881C1207.34 321.995 1210.99 325.415 1212.77 329.136C1220.91 327.362 1231.31 325.572 1239.6 325.603C1248.74 325.638 1257.76 327.085 1266.85 327.632C1271.42 328.507 1277.76 330.532 1282.25 330.168L1282.6 330.418C1287.9 333.923 1296.53 332.69 1298.47 340.478C1299.23 343.512 1298.51 347.355 1298.1 350.41C1300.82 354.533 1303.46 358.645 1305.8 362.998C1306.29 363.91 1307.51 365.644 1307.62 366.57L1326.4 402.1C1351.03 401.839 1375.21 400.313 1395.15 417.67C1407.19 428.145 1416.52 445.198 1417.46 461.289L1417.52 463.093C1417.69 471.897 1416.12 480.258 1412.78 488.421C1406.92 502.741 1396.92 516.353 1388.81 529.512L1330.85 623.943L1317.29 646.106C1314.3 650.83 1310.61 655.691 1308.25 660.744C1306.83 663.782 1307.1 667.632 1307.01 670.925L1306.66 685.667C1306.81 693.155 1307.81 700.491 1305.71 707.842C1304.59 711.775 1302.2 715.729 1299.92 719.11C1314.24 722.625 1330.31 726.227 1339.25 739.138L1339.61 739.627C1341.63 742.642 1341.58 862.902 1339.78 870.333L1338.24 875.47C1353.59 881.06 1415.42 888.351 1421.92 903.221C1422.67 904.957 1422.84 906.346 1422.02 908.046C1417.91 916.55 1399.66 921.459 1390.83 924.077C1368.7 930.639 1345.03 934.347 1322.25 937.819C1274.09 945.16 1225.36 949.271 1176.75 952.324L1101.67 954.692L987.432 957.923L847.875 961.844L778.295 963.81L726.863 962.314L613.688 958.924L452.653 954.148L357.33 951.424C301.298 948.662 244.589 943.112 189.249 933.987C167.833 930.456 143.23 927.518 123.81 917.124C120.549 915.379 117.9 913.314 115.875 910.191C115.44 908.133 115.27 906.592 116.421 904.731C118.787 900.908 123.049 898.667 127.05 896.941C140.88 890.977 156.674 888.165 171.4 885.295C173.825 884.823 182.419 883.973 183.874 882.477L184.226 719.322L184.048 675.449C183.934 665.521 183.108 654.894 184.441 645.054C184.949 641.309 186.748 638.652 189.323 636.013C201.642 623.392 226.663 618.878 243.79 616.965C196.519 603.073 156.345 569.396 132.845 526.202C126.905 515.286 116.134 492.824 119.453 480.933C123.837 474.993 134.162 474.649 141.085 473.616C167.013 469.748 192.146 472.426 217.308 479.105C218.557 476.522 219.775 473.2 221.512 470.96L229.842 451.518C230.297 450.042 231.357 448.452 232.07 447.059C232.784 445.364 234.485 442.143 234.193 440.332C233.664 437.046 230.927 432.912 229.588 429.781C227.467 424.821 225.702 419.647 224.044 414.514C215.048 386.661 212.535 358.115 216.082 329.051C216.887 322.456 217.471 315.765 219.626 309.437C220.416 307.116 222.006 304.995 224.318 304.021C229.439 301.862 236.787 305.386 241.714 307.184L267.515 316.627L308.6 342.96Z"/>
	<path fill="#3FE167" transform="scale(0.666667 0.666992)" d="M838.201 354.873C841.456 356.606 843.323 358.125 845.27 361.292C844.603 361.693 844.142 361.993 843.364 362.135C841.116 362.548 838.559 362.563 836.771 361.213C836.535 358.736 837.264 357.087 838.201 354.873Z"/>
	<path fill="#FCF075" transform="scale(0.666667 0.666992)" d="M1032.56 614.519L1032.56 607.648L1033.5 606.955L1040.54 610.996C1040.89 611.724 1042.01 613.371 1041.72 614.108C1041.14 615.542 1039.16 616.868 1038.05 617.974L1032.56 614.519Z"/>
	<path fill="#FEFEFC" transform="scale(0.666667 0.666992)" d="M198.731 786.778L199.056 780.454C202.033 779.264 216.603 785.892 220.171 787.213C218.06 788.25 215.831 787.089 213.647 786.312L210.373 784.946C211.082 787.276 213.471 789.808 215.25 791.443C217.157 791.301 217.525 792.162 219.116 792.151C220.276 792.142 220.319 792.266 221.25 792.76L222.405 793.278L221.899 793.957C213.929 792.96 206.068 789.952 198.731 786.778Z"/>
	<path fill="#E87F21" transform="scale(0.666667 0.666992)" d="M1032.02 691.622C1036.91 695.993 1042.37 699.08 1048.4 701.631C1047.93 703.35 1047.25 705.186 1047 706.941L1032.21 704.155L1032.02 691.622Z"/>
	<path fill="#E87F21" transform="scale(0.666667 0.666992)" d="M280.458 587.883C282.55 589.765 284.55 591.73 287.105 592.972L287.399 611.292C284.914 611.581 282.756 612.406 280.609 611.024C280.282 603.899 279.137 594.835 280.458 587.883Z"/>
	<path fill="#FCF075" transform="scale(0.666667 0.666992)" d="M280.458 587.883L280.696 585.367C283.197 585.023 286.1 587.225 288.375 588.201C291.781 589.663 295.516 590.848 299.091 591.812C310.071 594.773 321.078 595.688 332.257 597.334C328.001 599.984 322.721 598.101 317.895 598.174C314.909 598.22 311.575 598.89 308.634 599.424C302.732 599.593 292.937 594.867 287.105 592.972C284.55 591.73 282.55 589.765 280.458 587.883Z"/>
	<path fill="#E87F21" transform="scale(0.666667 0.666992)" d="M1032.56 614.519L1038.05 617.974C1041.24 619.628 1044.78 621.565 1048.3 622.368C1048.16 625.613 1048.73 636.02 1047.14 638.286C1043.16 636.066 1038.78 633.737 1035.64 630.36C1031.8 626.234 1032.55 619.735 1032.56 614.519Z"/>
	<path fill="#1F863C" transform="scale(0.666667 0.666992)" d="M719.177 345.286L730.555 341.353C730.508 345.474 730.003 350.19 731.154 354.168L731.543 361.514C740.213 361.574 750.136 360.679 758.625 362.231L719.235 362.165L719.177 345.286Z"/>
	<path fill="#F9AD26" transform="scale(0.666667 0.666992)" d="M683.287 351.065L708.972 352.321L709.524 362.813L684.09 362.453L683.287 351.065Z"/>
	<path fill="#E87F21" transform="scale(0.666667 0.666992)" d="M389.577 753.291C401.79 750.039 414.39 749.292 426.566 745.818C431.795 744.326 440.633 739.407 445.576 739.588C444.445 743.222 441.694 744.597 438.339 746.347C425.316 753.142 410.895 755.206 396.652 757.875L390.462 757.483C391.935 756.431 393.536 756.03 395.254 755.512L395.632 754.309L389.577 753.291Z"/>
	<path fill="#21A34D" transform="scale(0.666667 0.666992)" d="M232.07 447.059L235.132 442.983C238.315 445.738 241.062 453.883 243.119 457.749C246.146 463.438 249.512 468.846 253.044 474.232L250.025 483.596C243.409 473.065 237.447 461.323 229.842 451.518C230.297 450.042 231.357 448.452 232.07 447.059Z"/>
	<path fill="#E87F21" transform="scale(0.666667 0.666992)" d="M1032.49 648.058L1033.58 646.716L1041.28 650.768L1038.26 657.258C1041.47 658.82 1044.49 660.386 1048.01 661.107C1047.97 665.216 1048.85 673.902 1047.03 677.386C1042.62 675.291 1037.72 672.414 1034.91 668.318C1031.16 662.843 1031.22 654.303 1032.49 648.058Z"/>
	<path fill="#FEF8C1" transform="scale(0.666667 0.666992)" d="M1032.49 648.058L1033.58 646.716L1041.28 650.768L1038.26 657.258L1035.7 655.157C1033.2 652.961 1032.72 651.35 1032.49 648.058Z"/>
	<path fill="#8F3628" transform="scale(0.666667 0.666992)" d="M1310.54 781.312C1316.61 779.173 1320.78 774.797 1325.26 770.377C1326.22 776.298 1326.49 784.761 1322.87 789.868C1319.11 795.17 1311.58 798.442 1305.55 800.269C1307.75 793.972 1309.25 787.835 1310.54 781.312Z"/>
	<path fill="#FEFEFC" transform="scale(0.666667 0.666992)" d="M378.483 518.716C380.75 500.662 388.919 481.74 398.928 466.665C404.362 458.482 410.897 450.898 418.385 444.541C420.693 442.582 422.844 440.286 425.888 439.675L425.424 440.297C421.557 445.419 416.696 449.669 412.599 454.598C401.888 467.486 393.638 482.332 387.276 497.788C386.138 500.552 379.911 518.346 378.483 518.716Z"/>
	<path fill="#FEF8C1" transform="scale(0.666667 0.666992)" d="M221.899 793.957L222.405 793.278L221.25 792.76C220.319 792.266 220.276 792.142 219.116 792.151C217.525 792.162 217.157 791.301 215.25 791.443C213.471 789.808 211.082 787.276 210.373 784.946L213.647 786.312C215.831 787.089 218.06 788.25 220.171 787.213L263.016 793.945C261.053 796.392 260.186 796.869 260.311 800.128L235.663 797.002C231.106 796.249 226.2 795.662 221.899 793.957Z"/>
	<path fill="#8F3628" transform="scale(0.666667 0.666992)" d="M386.655 681.749L386.525 682.369C385.484 687.806 386.245 693.624 386.905 699.069L352.781 701.382C356.881 698.882 361.155 696.626 365.133 693.941C370.778 690.132 377.826 682.981 384.421 681.949L386.655 681.749Z"/>
	<path fill="#E87F21" transform="scale(0.666667 0.666992)" d="M361.177 834.117C367.407 832.765 374.083 832.567 380.434 831.961C391.661 830.89 403.278 829.705 414.306 827.357C420.202 826.102 426.275 824.813 431.924 822.694C436.474 820.988 442.535 816.774 446.958 816.128C446.621 819.049 446.439 819.399 444.126 821.193C431.525 830.966 409.651 833.68 394.444 836.151C392.265 836.413 389.705 837.199 387.703 836.29L388.172 835.375C391.005 835.222 392.9 835.18 395.224 833.311L395.224 832.16C391.19 831.627 387.557 832.937 383.625 833.498C376.843 834.467 367.837 835.851 361.177 834.117Z"/>
	<path fill="#D05A2C" transform="scale(0.666667 0.666992)" d="M1115.8 752.208C1113.71 750.01 1109.76 746.781 1108.63 744.086L1148.97 746.318L1155.61 755.498C1142.7 754.601 1128.44 754.604 1115.8 752.208Z"/>
	<path fill="#8F3628" transform="scale(0.666667 0.666992)" d="M402.413 719.012C412.473 726.019 420.967 724.893 432.446 726.631C421.882 732.118 409.26 734.427 397.601 736.234C392.374 737.044 386.7 738.224 381.416 738.14C383.977 735.98 387.552 734.367 390.35 732.416C395.13 729.082 399.712 724.164 402.413 719.012Z"/>
	<path fill="#AFF8F1" transform="scale(0.666667 0.666992)" d="M141.947 513.232C143.893 511.955 145.989 509.849 148.314 510.122C156.5 530.52 166.872 548.846 183.26 563.832L198.67 577.525C199.921 578.712 201.865 580.11 202.186 581.794C195.11 578.168 188.389 572.116 182.542 566.777C171.818 556.985 161.325 546.403 153.242 534.273C148.845 527.675 145.359 520.376 141.947 513.232Z"/>
	<path fill="#C34D2E" transform="scale(0.666667 0.666992)" d="M400.13 717.488L402.413 719.012C399.712 724.164 395.13 729.082 390.35 732.416C387.552 734.367 383.977 735.98 381.416 738.14L363.098 740.079L382.149 720.721C387.889 719.855 394.79 719.749 400.13 717.488Z"/>
	<path fill="#F9AD26" transform="scale(0.666667 0.666992)" d="M331.661 718.471L332.354 718.061L360.409 716.774L387.635 714.486C389.71 714.322 393.836 713.429 395.761 713.852C396.582 714.032 399.306 716.802 400.13 717.488C394.79 719.749 387.889 719.855 382.149 720.721C364.015 721.679 345.953 724.908 327.728 724.04L331.875 719.828L331.661 718.471Z"/>
	<path fill="#FEF8C1" transform="scale(0.666667 0.666992)" d="M198.466 707.798L198.967 702.289C201.296 701.631 204.469 703.434 206.781 704.258C210.906 705.728 215.091 706.937 219.331 708.021C232.258 711.327 245.612 713.677 258.875 715.145L259.801 720.93C239.964 721.095 216.225 716.819 198.466 707.798Z"/>
	<path fill="#FCF075" transform="scale(0.666667 0.666992)" d="M258.875 715.145L331.661 718.471L331.875 719.828L327.728 724.04C322.077 722.985 314.35 724.327 308.492 724.293C292.184 724.199 275.902 723.703 259.801 720.93L258.875 715.145Z"/>
	<path fill="#1F863C" transform="scale(0.666667 0.666992)" d="M922.409 319.422C924.762 331.508 925.724 343.077 924.796 355.389C924.649 357.335 924.791 360.881 923.795 362.45L912.333 362.445C914.282 351.553 915.422 338.45 912.656 327.597L912.713 327.275L922.409 319.422Z"/>
	<defs>
		<linearGradient id="gradient_0" gradientUnits="userSpaceOnUse" x1="252.57523" y1="663.51825" x2="203.87181" y2="679.9093">
			<stop offset="0" stop-color="#FFFFA1"/>
			<stop offset="1" stop-color="white"/>
		</linearGradient>
	</defs>
	<path fill="url(#gradient_0)" transform="scale(0.666667 0.666992)" d="M198.653 669.422L198.907 662.412L200.159 661.882C213.043 668.475 225.545 670.36 239.658 672.763C247.544 674.106 255.683 675.849 263.625 676.691C269.341 677.297 275.216 677.236 280.89 678.126L280.272 678.304C277.57 679.025 273.273 679.49 270.645 678.502C268.685 677.765 265.267 678.278 263.12 678.324L261.356 679.486L261.75 680.416C262.707 680.576 265.422 681.837 265.57 681.813C266.269 681.699 266.852 681.777 267.545 681.855C269.032 682.021 270.526 681.907 271.94 682.428C273.534 683.016 277.426 682.062 278.246 683.167L272.948 683.549C254.503 681.619 236.569 679.876 218.456 675.57C211.793 673.986 205.178 671.512 198.653 669.422Z"/>
	<path fill="#8F3628" transform="scale(0.666667 0.666992)" d="M1090.67 710.072C1094.75 710.311 1098.46 710.516 1102.32 711.939C1105.79 714.222 1109.55 716.433 1112.79 719.03C1117.24 722.601 1119.98 727.914 1125.4 730.216L1126.05 730.514L1126.44 730.686L1104.35 729.337C1101.6 729.232 1095.82 729.646 1093.5 728.365C1092.39 727.75 1091.09 726.398 1090.08 725.573L1077.75 718.816C1080.83 715.791 1083.75 712.724 1087.52 710.557L1090.67 710.072Z"/>
	<path fill="#702522" transform="scale(0.666667 0.666992)" d="M1087.52 710.557C1088.85 715.374 1089.43 720.619 1090.08 725.573L1077.75 718.816C1080.83 715.791 1083.75 712.724 1087.52 710.557Z"/>
	<path fill="#8F3628" transform="scale(0.666667 0.666992)" d="M1115.8 752.208C1128.44 754.604 1142.7 754.601 1155.61 755.498L1156.32 755.681L1163.52 770.513L1126.1 767.304L1115.8 752.208Z"/>
	<path fill="#FEFEFC" transform="scale(0.666667 0.666992)" d="M474.009 816.563L474.228 826.732C468.598 819.952 466.146 807.072 465.304 798.57C464.551 790.977 463.34 754.546 466.875 750.21L473.205 750.173L474.009 816.563Z"/>
	<path fill="#8F3628" transform="scale(0.666667 0.666992)" d="M1169.87 850.165L1136.65 848.04L1139.12 827.363C1139.31 828.421 1139.25 829.937 1140.16 830.544C1143.11 832.502 1167.92 832.521 1172.46 832.825C1171.78 837.782 1171.73 845.729 1169.87 850.165Z"/>
	<path fill="#F9AD26" transform="scale(0.666667 0.666992)" d="M311.361 757.045L389.577 753.291L395.632 754.309L395.254 755.512C393.536 756.03 391.935 756.431 390.462 757.483C386.141 759.873 378.77 760.035 373.841 760.48L343.176 762.676L322.034 763.955C315.59 764.037 308.934 763.076 302.442 762.898C303.092 761.374 303.672 760.103 304.718 758.81C306.979 758.562 308.821 758.323 310.9 757.286L311.361 757.045Z"/>
	<path fill="#13C2A9" transform="scale(0.666667 0.666992)" d="M229.842 451.518C237.447 461.323 243.409 473.065 250.025 483.596C248.937 486.053 248.397 489.227 247.659 491.843L218.631 479.618C219.846 476.763 220.71 473.953 221.512 470.96L229.842 451.518Z"/>
	<path fill="#FCF075" transform="scale(0.666667 0.666992)" d="M1032.02 691.622L1032.24 686.565L1033.42 686.042C1049.08 694.836 1064.19 699.694 1082.11 701.899C1082.92 704.157 1083.54 705.956 1085.1 707.815L1086.57 709.657L1090.67 710.072L1087.52 710.557C1083.75 712.724 1080.83 715.791 1077.75 718.816C1067.55 714.118 1057.85 709.964 1047 706.941C1047.25 705.186 1047.93 703.35 1048.4 701.631C1042.37 699.08 1036.91 695.993 1032.02 691.622Z"/>
	<path fill="#C34D2E" transform="scale(0.666667 0.666992)" d="M1048.4 701.631C1060.04 705.797 1074.18 709.61 1086.57 709.657L1090.67 710.072L1087.52 710.557C1083.75 712.724 1080.83 715.791 1077.75 718.816C1067.55 714.118 1057.85 709.964 1047 706.941C1047.25 705.186 1047.93 703.35 1048.4 701.631Z"/>
	<path fill="#8F3628" transform="scale(0.666667 0.666992)" d="M1130.06 868.619L1163.03 871.229C1160.53 877.302 1158.05 883.133 1154.35 888.592C1155.13 889.969 1155.4 889.901 1156.89 890.5L1120.54 888.081L1130.06 868.619Z"/>
	<path fill="#285D24" transform="scale(0.666667 0.666992)" d="M1158.75 491.614L1158.33 492.319C1154.96 497.906 1148.48 502.055 1143.71 506.473C1142.89 507.238 1140.04 509.613 1139.69 510.601C1139.35 511.553 1140.08 514.73 1140.29 515.711C1140.68 517.484 1141.13 518.758 1141.09 520.604C1141.08 521.341 1141.32 521.913 1141.41 522.618L1141.42 523.29C1141.48 524.194 1141.72 524.567 1142.06 525.372C1143.13 527.9 1142.26 530.401 1143.08 532.93C1143.73 534.946 1143.16 537.867 1142.81 539.944C1144.09 538.519 1145.09 537.385 1146.75 536.381C1150.6 534.051 1153.51 529.898 1157.44 527.566C1159.23 526.504 1159.74 524.588 1161.94 523.815L1163.1 523.362L1163.59 523.877L1140.66 543.508C1136.22 547.316 1131.02 550.916 1127.37 555.511C1129.56 557.034 1132.24 556.634 1134.87 556.756C1131.57 558.195 1127.67 557.882 1124.13 557.911L1124.61 525.864C1125.6 519.512 1152.89 496.268 1158.75 491.614Z"/>
	<path fill="#FCF075" transform="scale(0.666667 0.666992)" d="M280.89 678.126L362.278 677.852C367.248 677.632 382.54 675.414 386.003 677.629L386.655 681.749L384.421 681.949C352.14 683.9 320.349 685.552 288 684.222C283.177 684.024 277.626 684.676 272.948 683.549L278.246 683.167C277.426 682.062 273.534 683.016 271.94 682.428C270.526 681.907 269.032 682.021 267.545 681.855C266.852 681.777 266.269 681.699 265.57 681.813C265.422 681.837 262.707 680.576 261.75 680.416L261.356 679.486L263.12 678.324C265.267 678.278 268.685 677.765 270.645 678.502C273.273 679.49 277.57 679.025 280.272 678.304L280.89 678.126Z"/>
	<path fill="#FEF8C1" transform="scale(0.666667 0.666992)" d="M198.573 748.319L198.798 741.556L200.081 740.806C222.85 750.878 248.74 753.96 273.417 755.522L311.361 757.045L310.9 757.286C308.821 758.323 306.979 758.562 304.718 758.81C303.672 760.103 303.092 761.374 302.442 762.898L273.578 761.708C268.492 760.966 263.249 760.984 258.125 760.422C238.136 758.233 217.418 755.671 198.573 748.319Z"/>
	<path fill="#FCF075" transform="scale(0.666667 0.666992)" d="M273.417 755.522L311.361 757.045L310.9 757.286C308.821 758.323 306.979 758.562 304.718 758.81C303.672 760.103 303.092 761.374 302.442 762.898L273.578 761.708C275.297 761.405 277.325 760.587 278.982 760.513L279.75 760.502C284.117 760.182 288.476 760.586 292.875 760.318L293.25 758.81C291.671 757.83 289.772 758.193 287.928 758.127C286.484 758.075 285.397 757.571 284.041 757.416C280.384 756.997 277.187 758.098 273.895 755.88L273.417 755.522Z"/>
	<path fill="#21A34D" transform="scale(0.666667 0.666992)" d="M879.107 351.272L912.656 327.597C915.422 338.45 914.282 351.553 912.333 362.445L880.998 362.685C879.566 359.287 879.964 354.896 879.107 351.272Z"/>
	<path fill="#8F3628" transform="scale(0.666667 0.666992)" d="M1255.67 625.254C1268.99 621.725 1283.42 620.123 1291.27 607.541L1290.79 620.836C1290.73 621.925 1290.93 624.107 1290.56 624.99C1289.89 626.632 1287.68 629.027 1286.39 630.252C1273.58 642.421 1248.94 646.606 1231.99 647.647C1240.38 639.564 1249.42 635.681 1255.67 625.254Z"/>
	<path fill="#8F3628" transform="scale(0.666667 0.666992)" d="M1291.36 647.523C1291.53 653.805 1293.16 663.375 1288.52 668.236C1275.26 682.123 1247.47 685.55 1229.14 687.388C1237.92 680.103 1247.62 675.306 1254.19 665.433C1263.61 664.099 1276.05 660.815 1283.79 655.177C1286.64 653.101 1289.04 650.16 1291.36 647.523Z"/>
	<defs>
		<linearGradient id="gradient_1" gradientUnits="userSpaceOnUse" x1="379.81436" y1="884.66345" x2="366.21213" y2="849.93964">
			<stop offset="0" stop-color="#F88C2D"/>
			<stop offset="1" stop-color="#FDCE49"/>
		</linearGradient>
	</defs>
	<path fill="url(#gradient_1)" transform="scale(0.666667 0.666992)" d="M284.085 873.266C318.717 873.877 352.244 873.719 386.738 869.473C407.085 866.968 426.68 863.827 445.555 855.447L446.786 856.021L446.881 858.912C433.415 866.075 420.543 870.507 405.41 872.77C399.059 873.72 392.188 873.648 386.157 876.051L322.659 879.779C312.497 880.103 300.822 880.691 290.808 878.59L299.25 877.786C300.318 877.015 300.35 877.122 300.569 875.839C295.211 876.028 289.489 876.119 284.659 873.576L284.085 873.266Z"/>
	<path fill="#C34D2E" transform="scale(0.666667 0.666992)" d="M1268.27 790.947C1282.63 789.466 1296.84 785.691 1310.54 781.312C1309.25 787.835 1307.75 793.972 1305.55 800.269C1284.86 807.198 1262.85 811.022 1241.01 810.973C1244.4 808.27 1248.82 806.839 1252.52 804.497L1253.25 804.024C1257.4 801.385 1263.36 797.08 1265.44 792.523L1265.73 791.818L1268.27 790.947Z"/>
	<defs>
		<linearGradient id="gradient_2" gradientUnits="userSpaceOnUse" x1="1253.5887" y1="794.30426" x2="1239.4742" y2="848.22046">
			<stop offset="0" stop-color="#FD9B2A"/>
			<stop offset="1" stop-color="#FFD150"/>
		</linearGradient>
	</defs>
	<path fill="url(#gradient_2)" transform="scale(0.666667 0.666992)" d="M1175.99 826.389C1218.34 827.199 1264.26 828.925 1305.07 815.989C1312.11 813.758 1318.08 810.413 1324.84 807.675L1325.14 810.21C1309.57 822.86 1291.35 826.281 1272.09 829.387C1249.58 832.153 1226.74 834.062 1204.04 834.078C1198.38 834.082 1192.82 833.29 1187.18 833.138C1183.15 833.029 1176.33 833.97 1172.73 832.328C1172.44 830.281 1172.38 829.049 1173.05 827.077L1175.99 826.389Z"/>
	<path fill="#0C747C" transform="scale(0.666667 0.666992)" d="M1286.06 424.566L1284.95 424.285C1280.87 421.268 1277.87 411.855 1275.55 407.215C1274.69 405.499 1276.75 402.769 1277.59 401.133C1282.01 392.536 1286.53 383.547 1290.02 374.537L1298.1 350.41C1300.82 354.533 1303.46 358.645 1305.8 362.998C1306.29 363.91 1307.51 365.644 1307.62 366.57C1305.22 370.727 1304.65 377.185 1303.33 381.875C1301.48 388.442 1299.21 394.866 1296.58 401.158C1294.71 405.611 1292.52 410.014 1290.2 414.255C1288.49 417.391 1285.98 420.849 1286.06 424.566Z"/>
	<path fill="#FAD43E" transform="scale(0.666667 0.666992)" d="M1173.28 785.858C1191.67 787.598 1210.76 787.215 1229.21 786.447C1247.28 785.694 1265.76 784.546 1283.58 781.354C1292.3 779.792 1301.27 777.811 1309.52 774.557C1313.26 773.082 1322.25 767.026 1325.51 767.826L1325.26 770.377C1320.78 774.797 1316.61 779.173 1310.54 781.312C1296.84 785.691 1282.63 789.466 1268.27 790.947L1207.64 792.238L1179.8 792.982C1176.71 792.999 1172.26 793.685 1169.62 792.136C1169.15 790.101 1168.57 788.385 1169.32 786.338L1173.28 785.858Z"/>
	<path fill="#FAD43E" transform="scale(0.666667 0.666992)" d="M223.321 826.934L254.625 831.468C261.53 832.52 268.629 833.987 275.607 834.328C303.995 835.715 332.817 832.518 361.177 834.117C367.837 835.851 376.843 834.467 383.625 833.498C387.557 832.937 391.19 831.627 395.224 832.16L395.224 833.311C392.9 835.18 391.005 835.222 388.172 835.375L387.703 836.29C385.713 836.497 383.789 836.379 382.125 837.534C380.725 837.541 379.52 837.496 378.19 837.993C374.877 839.23 369.64 838.313 365.99 838.747C336.086 842.308 305.502 841.804 275.53 839.534C268.845 839.028 262.109 839.167 255.437 838.436L221.352 833.156L223.321 826.934Z"/>
	<path fill="#8F3628" transform="scale(0.666667 0.666992)" d="M399.894 796.098C416.134 793.667 431.73 788.892 446.063 780.827C446.284 786.481 448.137 794.165 444.131 798.472C431.675 811.869 390.136 816.084 372.083 816.966C383.556 812.125 392.433 806.093 399.894 796.098Z"/>
	<path fill="#8F3628" transform="scale(0.666667 0.666992)" d="M1325.14 810.21C1325.16 813.266 1326.14 822.068 1325.23 824.634C1324.78 825.892 1321.76 828.649 1320.73 829.655C1309.13 841.053 1287.87 844.291 1272.5 846.421C1266.12 847.306 1259.59 848.45 1253.15 848.715C1260.49 842.966 1267.28 837.51 1272.09 829.387C1291.35 826.281 1309.57 822.86 1325.14 810.21Z"/>
	<path fill="#8F3628" transform="scale(0.666667 0.666992)" d="M445.576 739.588C447.101 744.242 445.905 752.656 445.393 757.602C440.341 761.615 435.499 764.915 429.535 767.476C417.197 772.776 403.096 774.723 389.874 776.612C382.917 777.607 375.342 778.891 368.321 778.634C381.188 773.022 388.265 769.808 396.652 757.875C410.895 755.206 425.316 753.142 438.339 746.347C441.694 744.597 444.445 743.222 445.576 739.588Z"/>
	<path fill="#F9AD26" transform="scale(0.666667 0.666992)" d="M263.016 793.945C278.719 795.753 293.984 795.975 309.765 796.137C336.961 796.416 363.931 795.28 390.913 791.669C403.422 789.995 416.369 788.221 428.415 784.391C432.364 783.135 442.868 777.279 445.875 777.938L446.063 780.827C431.73 788.892 416.134 793.667 399.894 796.098C372.514 799.66 346.057 801.913 318.429 802.271C312.162 802.352 305.22 803.291 299.071 802.211C294.718 801.447 289.672 801.937 285.237 801.95C277.337 801.973 267.989 801.747 260.311 800.128C260.186 796.869 261.053 796.392 263.016 793.945Z"/>
	<path fill="#8F3628" transform="scale(0.666667 0.666992)" d="M1245.03 706.349C1254.42 704.931 1263.53 702.413 1272.53 699.414C1276.27 698.167 1280.63 696.98 1283.95 694.874C1286.63 693.178 1289.11 690.151 1291.3 687.846C1291.53 694.952 1292.94 703.724 1287.5 709.324C1282.19 714.796 1274.65 716.919 1267.59 719.079C1249.13 724.729 1230.55 727.265 1211.4 729.143C1224.14 722.517 1234.81 716.576 1245.03 706.349Z"/>
	<path fill="#F9AD26" transform="scale(0.666667 0.666992)" d="M1165.07 864.976C1195.64 866.478 1226.77 865.855 1257.24 862.904C1271.71 861.503 1286.8 859.894 1300.82 855.942C1309.09 853.61 1316.46 850.093 1324.11 846.261L1325.4 847.816C1321.15 855.595 1306.92 861.142 1298.75 863.554C1292.75 865.323 1286.57 866.337 1280.45 867.58C1274.87 868.713 1268.18 870.311 1262.46 870.075C1256.78 870.234 1251.08 871.224 1245.4 871.516C1218.39 872.903 1191.34 874.325 1164.38 871.633C1163.32 869.824 1164.6 867.017 1165.07 864.976Z"/>
	<defs>
		<linearGradient id="gradient_3" gradientUnits="userSpaceOnUse" x1="1251.9409" y1="476.18109" x2="1318.2053" y2="444.19382">
			<stop offset="0" stop-color="#3DF4D4"/>
			<stop offset="1" stop-color="#9EFFFE"/>
		</linearGradient>
	</defs>
	<path fill="url(#gradient_3)" transform="scale(0.666667 0.666992)" d="M1236.16 445.207C1265.33 435.461 1292.76 434.922 1321.91 446.026C1321.46 449.315 1319.33 453.24 1318.01 456.312C1312.09 470.16 1304.74 482.877 1296.55 495.486C1294.91 493.645 1291.99 491.902 1289.99 490.378C1292.72 485.115 1296.05 480.279 1298.52 474.869L1307.11 453.449C1296.51 449.092 1284.06 447.216 1272.64 447.181C1260.93 446.716 1250.12 449.375 1238.72 451.597L1236.16 445.207Z"/>
	<path fill="#8F3628" transform="scale(0.666667 0.666992)" d="M446.958 816.128C448.598 820.146 447.567 831.526 446.827 835.952C432.361 848.234 412.211 850.919 394.024 853.461C380.711 855.322 367.18 856.844 353.724 856.955C356.606 855.031 360.87 854.184 364.125 852.914C374.483 848.875 385.999 843.371 394.444 836.151C409.651 833.68 431.525 830.966 444.126 821.193C446.439 819.399 446.621 819.049 446.958 816.128Z"/>
	<path fill="#4CF387" transform="scale(0.666667 0.666992)" d="M148.314 510.122L149.646 508.659C153.55 509.146 157.26 511.082 161.048 512.19L182.25 518.413C185.185 519.288 189.289 520.006 191.862 521.562C194.554 522.163 197.262 522.89 200.012 523.146C189.788 535.462 184.514 547.81 183.26 563.832C166.872 548.846 156.5 530.52 148.314 510.122Z"/>
	<path fill="#D05A2C" transform="scale(0.666667 0.666992)" d="M287.105 592.972C292.937 594.867 302.732 599.593 308.634 599.424C311.575 598.89 314.909 598.22 317.895 598.174C322.721 598.101 328.001 599.984 332.257 597.334L385.104 599.482L386.413 600.817C386.927 604.085 386.847 606.938 386.538 610.226L287.399 611.292L287.105 592.972Z"/>
	<path fill="#FAD43E" transform="scale(0.666667 0.666992)" d="M332.257 597.334L385.104 599.482L386.413 600.817C386.339 602.752 386.489 604.259 385.164 605.773C381.26 606.727 376.126 606.199 372.06 606.188C357.956 606.15 344.002 605.277 330.026 603.391C322.725 602.405 315.713 601.603 308.634 599.424C311.575 598.89 314.909 598.22 317.895 598.174C322.721 598.101 328.001 599.984 332.257 597.334Z"/>
	<path fill="#F9AD26" transform="scale(0.666667 0.666992)" d="M931.767 316.383C932.937 315.455 935.963 314.945 937.478 314.389C944.5 311.812 949.968 308.646 955.511 303.561C960.47 323.184 963.308 342.533 960.641 362.806L934.316 362.787C936.26 346.933 935.279 331.913 931.767 316.383Z"/>
	<defs>
		<linearGradient id="gradient_4" gradientUnits="userSpaceOnUse" x1="1194.5787" y1="721.11737" x2="1180.4928" y2="674.13043">
			<stop offset="0" stop-color="#FFCB50"/>
			<stop offset="1" stop-color="#FFF470"/>
		</linearGradient>
	</defs>
	<path fill="url(#gradient_4)" transform="scale(0.666667 0.666992)" d="M1082.11 701.899L1128.53 705.876C1158.18 707.708 1188.44 706.923 1217.96 703.606C1237.7 701.387 1258.95 698.357 1277.48 691.105C1280.78 689.812 1287.86 685.332 1291.09 685.601L1291.3 687.846C1289.11 690.151 1286.63 693.178 1283.95 694.874C1280.63 696.98 1276.27 698.167 1272.53 699.414C1263.53 702.413 1254.42 704.931 1245.03 706.349C1207.34 712.244 1171.12 713.932 1133 713.333L1102.32 711.939C1098.46 710.516 1094.75 710.311 1090.67 710.072L1086.57 709.657L1085.1 707.815C1083.54 705.956 1082.92 704.157 1082.11 701.899Z"/>
	<path fill="#8F3628" transform="scale(0.666667 0.666992)" d="M1325.4 847.816C1325.78 855.383 1327.3 865.259 1321.99 871.137C1309.04 885.496 1264.25 889.49 1245.68 890.274L1235.03 890.457C1245.05 884.089 1253.81 878.317 1262.46 870.075C1268.18 870.311 1274.87 868.713 1280.45 867.58C1286.57 866.337 1292.75 865.323 1298.75 863.554C1306.92 861.142 1321.15 855.595 1325.4 847.816Z"/>
	<defs>
		<linearGradient id="gradient_5" gradientUnits="userSpaceOnUse" x1="1028.4475" y1="840.34955" x2="1017.8452" y2="932.31427">
			<stop offset="0" stop-color="#FFB70D"/>
			<stop offset="1" stop-color="#FD9216"/>
		</linearGradient>
	</defs>
	<path fill="url(#gradient_5)" transform="scale(0.666667 0.666992)" d="M1123.63 830.458C1122.83 857.692 1109.99 884.506 1090.25 903.049C1069.38 922.653 1039.34 933.591 1010.79 932.597C982.527 931.613 956.419 919.321 937.179 898.608C933.712 894.875 930.106 891.043 927.187 886.858C929.305 887.095 931.397 887.316 933.256 888.448C936.842 890.63 940.096 894.651 943.305 897.435C947.979 901.49 953.202 905.129 958.409 908.466C983.315 924.431 1015.51 928.317 1043.95 921.758C1057.47 918.642 1070.87 913.542 1081.81 904.829C1098.62 891.442 1109.71 868.437 1118.03 849.052C1119.13 846.485 1120.19 843.816 1120.7 841.063C1121.34 837.634 1121.35 833.87 1123.32 830.882L1123.63 830.458Z"/>
	<path fill="#8F3628" transform="scale(0.666667 0.666992)" d="M386.157 876.051C392.188 873.648 399.059 873.72 405.41 872.77C420.543 870.507 433.415 866.075 446.881 858.912L446.947 875.979C440.525 880.823 433.813 884.211 426.163 886.66C419.775 888.704 413.162 889.676 406.589 890.894C388.52 894.242 370.126 895.929 351.764 896.576C347.273 896.734 341.828 897.483 337.474 896.788L336.569 896.629C341.023 894.682 346.277 894.048 350.989 892.701C363.344 889.168 375.692 883.443 386.157 876.051Z"/>
	<path fill="#3FE167" transform="scale(0.666667 0.666992)" d="M779.192 334.315C783.978 338.782 788.716 343.921 794.02 347.739C797.499 350.243 802.236 351.659 805.295 354.545C806.214 355.411 806.403 357.036 806.434 358.239L806.424 361.588C805.36 362.276 804.67 362.442 803.418 362.59L758.625 362.231C750.136 360.679 740.213 361.574 731.543 361.514L731.154 354.168C731.199 349.069 730.848 343.594 731.613 338.56L732.404 340.057L779.192 334.315Z"/>
	<defs>
		<linearGradient id="gradient_6" gradientUnits="userSpaceOnUse" x1="1287.9962" y1="381.19818" x2="1325.0469" y2="440.14359">
			<stop offset="0" stop-color="#12989A"/>
			<stop offset="1" stop-color="#0EB4AA"/>
		</linearGradient>
	</defs>
	<path fill="url(#gradient_6)" transform="scale(0.666667 0.666992)" d="M1286.06 424.566C1285.98 420.849 1288.49 417.391 1290.2 414.255C1292.52 410.014 1294.71 405.611 1296.58 401.158C1299.21 394.866 1301.48 388.442 1303.33 381.875C1304.65 377.185 1305.22 370.727 1307.62 366.57L1326.4 402.1L1331.82 416.001C1333.42 421.269 1338.06 432.892 1335.74 437.692C1329.86 433.103 1324.51 431.923 1317.5 430.033C1306.99 427.199 1296.92 425.376 1286.06 424.566Z"/>
	<defs>
		<linearGradient id="gradient_7" gradientUnits="userSpaceOnUse" x1="1165.718" y1="674.94269" x2="1161.8562" y2="639.48871">
			<stop offset="0" stop-color="#FFCF46"/>
			<stop offset="1" stop-color="#FFF6B0"/>
		</linearGradient>
	</defs>
	<path fill="url(#gradient_7)" transform="scale(0.666667 0.666992)" d="M1041.28 650.768L1058.47 657.302C1073.58 662.114 1089.77 663.411 1105.48 664.732C1144.04 667.977 1183.06 667.362 1221.57 663.55C1235.64 662.157 1249.57 660.921 1263.31 657.357C1270.07 655.603 1276.68 653.364 1282.88 650.103C1285.58 648.681 1288 646.816 1290.72 645.414L1291.36 647.523C1289.04 650.16 1286.64 653.101 1283.79 655.177C1276.05 660.815 1263.61 664.099 1254.19 665.433C1214.32 672.867 1173.42 675.561 1132.91 673.594L1106.44 672.236C1086.53 670.281 1067.28 666.385 1048.01 661.107C1044.49 660.386 1041.47 658.82 1038.26 657.258L1041.28 650.768Z"/>
	<path fill="#D05A2C" transform="scale(0.666667 0.666992)" d="M1139.12 827.363C1139.3 826.256 1139.62 825.673 1140.14 824.698C1145.59 824.123 1151.23 824.968 1156.68 825.378L1175.99 826.389L1173.05 827.077C1172.38 829.049 1172.44 830.281 1172.73 832.328C1176.33 833.97 1183.15 833.029 1187.18 833.138C1192.82 833.29 1198.38 834.082 1204.04 834.078C1226.74 834.062 1249.58 832.153 1272.09 829.387C1267.28 837.51 1260.49 842.966 1253.15 848.715C1243.3 850.005 1232.67 849.327 1222.68 849.44L1169.87 850.165C1171.73 845.729 1171.78 837.782 1172.46 832.825C1167.92 832.521 1143.11 832.502 1140.16 830.544C1139.25 829.937 1139.31 828.421 1139.12 827.363Z"/>
	<defs>
		<linearGradient id="gradient_8" gradientUnits="userSpaceOnUse" x1="1166.8221" y1="635.56653" x2="1163.363" y2="601.4054">
			<stop offset="0" stop-color="#FFD851"/>
			<stop offset="1" stop-color="#FEFA9D"/>
		</linearGradient>
	</defs>
	<path fill="url(#gradient_8)" transform="scale(0.666667 0.666992)" d="M1040.54 610.996C1056.35 618.719 1072.6 621.189 1089.86 623.58C1124.78 628.422 1160.16 628.803 1195.28 626.41C1216.02 624.997 1236.03 622.892 1256.41 618.603C1264 617.006 1271.38 615.015 1278.48 611.839C1282.43 610.072 1287.16 605.196 1291.12 604.574L1291.27 607.541C1283.42 620.123 1268.99 621.725 1255.67 625.254C1224.13 632.868 1192.83 634.452 1160.5 634.546C1122.22 634.657 1085.39 632.581 1048.3 622.368C1044.78 621.565 1041.24 619.628 1038.05 617.974C1039.16 616.868 1041.14 615.542 1041.72 614.108C1042.01 613.371 1040.89 611.724 1040.54 610.996Z"/>
	<path fill="#F9AD26" transform="scale(0.666667 0.666992)" d="M612.357 624.213C615.041 636.15 614.136 648.72 607.53 659.276C601.972 668.16 593.247 675.281 582.902 677.63C572.176 680.065 561.321 678.423 552.069 672.371C548.474 670.019 541.823 665.089 540.318 660.909C541.113 657.259 540.272 653.352 540.255 649.625C540.236 645.677 540.779 641.627 541.194 637.7C546.245 642.254 551.03 646.679 557.128 649.828C559.323 650.962 561.496 651.501 563.855 652.147C572.847 654.613 580.677 654.098 589.5 651.185C591.705 650.456 593.69 649.503 595.703 648.343C604.612 643.207 609.735 633.868 612.357 624.213Z"/>
	<path fill="#13C2A9" transform="scale(0.666667 0.666992)" d="M1120.27 410.853C1119.23 408.821 1118.28 406.998 1117.85 404.724C1132.23 389.367 1149.5 374.921 1167.34 363.808C1187.58 351.196 1213.51 341.963 1237.43 340.654C1253.5 339.774 1269.12 342.021 1284.71 345.675L1273.27 377.634C1270.05 378.127 1266.78 378.03 1263.53 378.033L1270.48 354.542C1246.64 347.879 1224.97 349.142 1201.38 356.577C1195.31 358.49 1188.63 360.512 1183.09 363.666L1164.31 375.246C1160.15 377.794 1155.16 380.075 1152.05 383.914C1145.33 389.271 1135.99 395.651 1130.63 402.26L1120.27 410.853Z"/>
	<path fill="#FCF075" transform="scale(0.666667 0.666992)" d="M906.565 830.941C905.943 822.308 906.344 811.872 907.982 803.407C913.081 777.063 931.045 752.922 952.961 737.993C976.427 722.008 1010.06 713.798 1038.19 719.458C1063.26 724.503 1089.37 739.514 1103.75 761.176L1102.82 761.117C1098.93 760.747 1091.98 752.883 1088.2 750.562C1078.34 744.518 1067.96 738.427 1057.12 734.342C1021.98 721.102 983.196 725.226 952.831 747.754C927.48 766.562 913.157 792.61 908.625 823.536C908.232 826.215 907.505 828.407 906.565 830.941Z"/>
	<path fill="#D05A2C" transform="scale(0.666667 0.666992)" d="M1130.06 868.619L1132.91 862.759L1165.07 864.976C1164.6 867.017 1163.32 869.824 1164.38 871.633C1191.34 874.325 1218.39 872.903 1245.4 871.516C1251.08 871.224 1256.78 870.234 1262.46 870.075C1253.81 878.317 1245.05 884.089 1235.03 890.457C1209.32 893.15 1182.73 890.696 1156.89 890.5C1155.4 889.901 1155.13 889.969 1154.35 888.592C1158.05 883.133 1160.53 877.302 1163.03 871.229L1130.06 868.619Z"/>
	<path fill="#FAD43E" transform="scale(0.666667 0.666992)" d="M923.394 251.033C937.485 266.467 948.475 283.817 955.511 303.561C949.968 308.646 944.5 311.812 937.478 314.389C935.963 314.945 932.937 315.455 931.767 316.383C922.489 289.022 908.244 271.855 885.631 254.284C897.75 251.693 911.022 252.808 923.394 251.033Z"/>
	<path fill="#C34D2E" transform="scale(0.666667 0.666992)" d="M1102.32 711.939L1133 713.333C1171.12 713.932 1207.34 712.244 1245.03 706.349C1234.81 716.576 1224.14 722.517 1211.4 729.143L1126.44 730.686L1126.05 730.514L1125.4 730.216C1119.98 727.914 1117.24 722.601 1112.79 719.03C1109.55 716.433 1105.79 714.222 1102.32 711.939Z"/>
	<defs>
		<linearGradient id="gradient_9" gradientUnits="userSpaceOnUse" x1="1239.6075" y1="773.67145" x2="1242.285" y2="730.39331">
			<stop offset="0" stop-color="#F07A22"/>
			<stop offset="1" stop-color="#ECC141"/>
		</linearGradient>
	</defs>
	<path fill="url(#gradient_9)" transform="scale(0.666667 0.666992)" d="M1272.72 732.683L1273.46 732.414C1282.72 729.116 1308.37 735.438 1317.3 739.834C1320.46 741.386 1323.01 743.201 1325.14 746.057C1324.98 748.968 1324.86 750.465 1322.54 752.566C1317.85 756.815 1310.39 758.327 1304.49 760.198C1259.82 774.35 1209.82 773.676 1163.52 770.513L1156.32 755.681C1178.22 758.531 1199.02 760.902 1221.22 759.923C1233.59 759.378 1245.98 756.91 1258.24 756.57C1270.13 756.24 1283.46 758.836 1295.12 756.394C1298.96 755.59 1302.64 755.009 1306.24 753.328C1309.49 751.815 1311.03 751.015 1312.32 747.558C1311.74 745.35 1311.85 744.619 1309.92 743.297C1299.2 735.965 1284.16 738.343 1272.72 732.683Z"/>
	<path fill="#455067" transform="scale(0.666667 0.666992)" d="M473.205 750.173L547.896 750.09L474.009 816.563L473.205 750.173Z"/>
	<defs>
		<linearGradient id="gradient_10" gradientUnits="userSpaceOnUse" x1="1116.1169" y1="474.60922" x2="1176.2053" y2="436.17749">
			<stop offset="0" stop-color="#294917"/>
			<stop offset="1" stop-color="#268C45"/>
		</linearGradient>
	</defs>
	<path fill="url(#gradient_10)" transform="scale(0.666667 0.666992)" d="M1135.79 439.729L1161.74 416.746C1166.87 419.25 1169.27 425.611 1172.37 430.192C1175.28 434.498 1178.88 438.85 1181.13 443.543C1182.26 445.9 1183.1 450.243 1184.78 452.134C1185.4 452.827 1188.05 452.54 1188.92 452.526C1166.81 465.855 1146.27 480.658 1127.3 498.202L1127.1 466.356C1127.02 460.297 1126.4 453.708 1127.36 447.72L1135.79 439.729Z"/>
	<path fill="#FAD43E" transform="scale(0.666667 0.666992)" d="M1148.97 746.318C1176.72 746.695 1204.66 746.006 1232.17 742.195C1245.49 740.351 1260.24 737.774 1272.72 732.683C1284.16 738.343 1299.2 735.965 1309.92 743.297C1311.85 744.619 1311.74 745.35 1312.32 747.558C1311.03 751.015 1309.49 751.815 1306.24 753.328C1302.64 755.009 1298.96 755.59 1295.12 756.394C1283.46 758.836 1270.13 756.24 1258.24 756.57C1245.98 756.91 1233.59 759.378 1221.22 759.923C1199.02 760.902 1178.22 758.531 1156.32 755.681L1155.61 755.498L1148.97 746.318Z"/>
	<path fill="#D05A2C" transform="scale(0.666667 0.666992)" d="M1133.55 789.781L1131.44 782.141L1173.28 785.858L1169.32 786.338C1168.57 788.385 1169.15 790.101 1169.62 792.136C1172.26 793.685 1176.71 792.999 1179.8 792.982L1207.64 792.238L1268.27 790.947L1265.73 791.818L1265.44 792.523C1263.36 797.08 1257.4 801.385 1253.25 804.024L1252.52 804.497C1248.82 806.839 1244.4 808.27 1241.01 810.973C1234.66 812.119 1227.67 811.879 1221.21 812.055L1172.59 811.178L1138.08 808.347L1133.55 789.781Z"/>
	<path fill="#8F3628" transform="scale(0.666667 0.666992)" d="M1133.55 789.781L1169.77 793.095L1172.59 811.178L1138.08 808.347L1133.55 789.781Z"/>
	<path fill="#1F863C" transform="scale(0.666667 0.666992)" d="M425.888 439.675C428.072 444.51 426.522 455.775 426.465 461.271C426.255 481.308 424.748 502.376 426.313 522.331L409.13 533.021C397.945 529.829 387.117 529.989 375.593 529.974C376.618 526.397 377.703 522.89 378.094 519.177L378.483 518.716C379.911 518.346 386.138 500.552 387.276 497.788C393.638 482.332 401.888 467.486 412.599 454.598C416.696 449.669 421.557 445.419 425.424 440.297L425.888 439.675Z"/>
	<path fill="#D05A2C" transform="scale(0.666667 0.666992)" d="M198.653 669.422C205.178 671.512 211.793 673.986 218.456 675.57C236.569 679.876 254.503 681.619 272.948 683.549C277.626 684.676 283.177 684.024 288 684.222C320.349 685.552 352.14 683.9 384.421 681.949C377.826 682.981 370.778 690.132 365.133 693.941C361.155 696.626 356.881 698.882 352.781 701.382C348.839 702.18 344.829 702.763 340.805 702.873C313.973 703.605 222.217 703.982 203.161 685.371C198.281 680.605 198.673 675.663 198.653 669.422Z"/>
	<path fill="#D05A2C" transform="scale(0.666667 0.666992)" d="M198.466 707.798C216.225 716.819 239.964 721.095 259.801 720.93C275.902 723.703 292.184 724.199 308.492 724.293C314.35 724.327 322.077 722.985 327.728 724.04C345.953 724.908 364.015 721.679 382.149 720.721L363.098 740.079C358.86 741.157 354.314 741.534 349.951 741.709C321.722 742.842 221.641 742.919 202.827 724.507C197.67 719.459 198.486 714.434 198.466 707.798Z"/>
	<path fill="#6FFBF2" transform="scale(0.666667 0.666992)" d="M229.455 334.406C229.176 328.521 230.465 324.057 232.15 318.432L245.837 323.279C277.453 337.846 306.682 355.001 327.872 383.49C338.092 397.23 345.801 413.052 352.128 428.912C349.494 427.773 344.542 417.254 342.406 413.986C337.248 406.097 331.646 398.367 325.538 391.183C303.864 365.695 275.415 344.361 244.221 331.972C249.688 338.169 256.454 343.208 262.338 349.025C278.34 364.846 293.62 383.045 304.576 402.738L300.44 406.103C292.479 393.858 282.412 379.75 269.625 372.128C259.537 366.116 247.468 363.075 236.12 360.424C236.26 380.656 239.426 401.169 245.77 420.406C247.876 426.789 250.318 433.306 253.125 439.411C255.929 445.509 263.968 454.774 263.923 461.298L262.638 459.32C243.068 428.812 230.192 396.082 228.411 359.642C228.002 351.265 227.671 342.657 229.455 334.406Z"/>
	<path fill="#AFF8F1" transform="scale(0.666667 0.666992)" d="M229.455 334.406C229.176 328.521 230.465 324.057 232.15 318.432L245.837 323.279C245.513 325.062 245.438 328.472 243.97 329.609C242.84 330.484 240.823 330.742 239.443 331.054C237.339 333.004 237.157 335.094 236.669 337.772C235.388 344.81 235.881 352.585 236.082 359.713L234.75 360.217C231.928 357.895 231.621 354.918 231.281 351.493C230.74 346.039 231.36 339.561 229.455 334.406Z"/>
	<path fill="#21A34D" transform="scale(0.666667 0.666992)" d="M719.177 345.286C719.237 333.807 721.216 322.461 725.558 311.789C735.911 286.338 756.271 264.687 781.799 254.113C806.496 243.884 836.358 242.699 861.251 253.122C893.251 266.521 909.482 287.936 922.409 319.422L912.713 327.275C907.504 303.717 893.353 284.416 873 271.477C852.156 258.225 826.098 253.631 802.069 259.169C777.488 264.835 756.984 280.199 743.841 301.574C737.001 312.697 732.973 325.599 731.613 338.56C730.848 343.594 731.199 349.069 731.154 354.168C730.003 350.19 730.508 345.474 730.555 341.353L719.177 345.286Z"/>
	<path fill="#D05A2C" transform="scale(0.666667 0.666992)" d="M198.631 819.975C201.976 818.877 205.966 821.448 209.294 822.616L223.321 826.934L221.352 833.156L255.437 838.436C262.109 839.167 268.845 839.028 275.53 839.534C305.502 841.804 336.086 842.308 365.99 838.747C369.64 838.313 374.877 839.23 378.19 837.993C379.52 837.496 380.725 837.541 382.125 837.534C383.789 836.379 385.713 836.497 387.703 836.29C389.705 837.199 392.265 836.413 394.444 836.151C385.999 843.371 374.483 848.875 364.125 852.914C360.87 854.184 356.606 855.031 353.724 856.955C340.011 858.481 326.356 858.282 312.584 858.229C281.047 858.108 249.587 856.349 218.783 849.071C211.929 847.452 203.475 844.13 199.932 837.544C197.577 833.165 197.19 824.688 198.631 819.975Z"/>
	<path fill="#FEFEFC" transform="scale(0.666667 0.666992)" d="M198.631 819.975C201.976 818.877 205.966 821.448 209.294 822.616L223.321 826.934L221.352 833.156C215.545 832.158 204.18 830.703 199.997 826.456C198.145 824.577 198.682 822.455 198.631 819.975Z"/>
	<path fill="#F9AD26" transform="scale(0.666667 0.666992)" d="M386.927 573.828L386.727 582.819C359.502 582.941 332.061 582.464 305.482 576.006C298.93 574.414 291.578 572.734 285.896 569.016C283.65 567.545 282.96 567.168 282.405 564.513C282.966 562.993 283.583 561.759 284.759 560.612C290.68 554.835 301.371 553.275 309.158 551.717C338.395 545.867 367.499 545.34 397.209 545.308L392.024 553.785C389.436 560.422 387.85 566.738 386.927 573.828Z"/>
	<path fill="#FCF075" transform="scale(0.666667 0.666992)" d="M386.927 573.828L341.077 572.532C329.342 572.175 316.035 572.379 304.837 568.62C302.526 567.844 300.937 567.125 299.864 564.888C300.43 564.024 300.875 563.487 301.78 562.948C305.268 560.873 309.732 559.86 313.629 558.873C329.199 554.93 345.106 554.972 361.016 554.01C370.917 553.412 382.264 551.466 392.024 553.785C389.436 560.422 387.85 566.738 386.927 573.828Z"/>
	<path fill="#D05A2C" transform="scale(0.666667 0.666992)" d="M198.573 748.319C217.418 755.671 238.136 758.233 258.125 760.422C263.249 760.984 268.492 760.966 273.578 761.708L302.442 762.898C308.934 763.076 315.59 764.037 322.034 763.955L343.176 762.676L373.841 760.48C378.77 760.035 386.141 759.873 390.462 757.483L396.652 757.875C388.265 769.808 381.188 773.022 368.321 778.634C361.334 780.306 353.563 780.22 346.41 780.33C317.836 780.771 222.403 782.73 203.015 763.412C198.345 758.759 198.595 754.482 198.573 748.319Z"/>
	<defs>
		<linearGradient id="gradient_11" gradientUnits="userSpaceOnUse" x1="289.88058" y1="826.88837" x2="302.93686" y2="774.3197">
			<stop offset="0" stop-color="#DA6228"/>
			<stop offset="1" stop-color="#C74F33"/>
		</linearGradient>
	</defs>
	<path fill="url(#gradient_11)" transform="scale(0.666667 0.666992)" d="M198.731 786.778C206.068 789.952 213.929 792.96 221.899 793.957C226.2 795.662 231.106 796.249 235.663 797.002L260.311 800.128C267.989 801.747 277.337 801.973 285.237 801.95C289.672 801.937 294.718 801.447 299.071 802.211C305.22 803.291 312.162 802.352 318.429 802.271C346.057 801.913 372.514 799.66 399.894 796.098C392.433 806.093 383.556 812.125 372.083 816.966L335.775 819.818C310.194 820.827 220.627 819.864 203.884 803.828C198.871 799.027 198.902 793.279 198.731 786.778Z"/>
	<path fill="#FEFEFC" transform="scale(0.666667 0.666992)" d="M449.131 440.361L442.903 468.855C442.279 454.111 439.639 438.136 442.11 423.531C444.477 409.535 452.833 396.373 464.545 388.347C473.215 382.407 482.996 378.914 493.457 378.111C505.623 377.177 518.214 377.972 530.432 378.013L601.186 378.171L826.503 378.16L982.121 378.173L1024.69 378.19C1034.22 378.196 1044.17 377.545 1053.56 379.327C1070.3 382.506 1083.64 391.749 1093.26 405.658L1092.77 405.386C1089.08 403.24 1086.14 399.785 1082.96 396.955C1074.62 389.524 1063.64 384.279 1052.56 382.674C1045.41 381.637 1038.13 381.951 1030.92 381.947L998.812 381.937L887.837 381.944L616.71 382.118L554.988 382.092C537.728 382.045 518.212 380.079 501.39 384.245C482.554 388.91 466.512 400.209 456.594 417.075C452.481 424.071 449.756 432.24 449.131 440.361Z"/>
	<path fill="#D05A2C" transform="scale(0.666667 0.666992)" d="M1048.3 622.368C1085.39 632.581 1122.22 634.657 1160.5 634.546C1192.83 634.452 1224.13 632.868 1255.67 625.254C1249.42 635.681 1240.38 639.564 1231.99 647.647C1225.03 650.12 1215.11 649.668 1207.65 650.274C1179.09 652.594 1150.23 652.715 1121.62 651.193C1096.86 649.875 1070.3 647.75 1047.14 638.286C1048.73 636.02 1048.16 625.613 1048.3 622.368Z"/>
	<path fill="#C34D2E" transform="scale(0.666667 0.666992)" d="M1048.01 661.107C1067.28 666.385 1086.53 670.281 1106.44 672.236L1132.91 673.594C1173.42 675.561 1214.32 672.867 1254.19 665.433C1247.62 675.306 1237.92 680.103 1229.14 687.388C1205.03 691.906 1179.44 691.826 1155 691.72C1132.52 691.622 1109.69 691.481 1087.42 688.094C1073.49 685.976 1060.21 682.374 1047.03 677.386C1048.85 673.902 1047.97 665.216 1048.01 661.107Z"/>
	<path fill="#FAD43E" transform="scale(0.666667 0.666992)" d="M537.835 617.233C542.63 609.382 548.496 602.814 557.083 599.095C567.352 594.648 577.578 594.735 587.912 598.875C596.932 601.682 604.859 609.157 609.208 617.439L612.357 624.213C609.735 633.868 604.612 643.207 595.703 648.343C593.69 649.503 591.705 650.456 589.5 651.185C580.677 654.098 572.847 654.613 563.855 652.147C561.496 651.501 559.323 650.962 557.128 649.828C551.03 646.679 546.245 642.254 541.194 637.7C540.779 641.627 540.236 645.677 540.255 649.625C540.272 653.352 541.113 657.259 540.318 660.909C538.835 658.881 537.343 656.826 536.364 654.499C530.942 641.605 532.679 629.792 537.835 617.233Z"/>
	<path fill="#FEFEFC" transform="scale(0.666667 0.666992)" d="M537.835 617.233C542.63 609.382 548.496 602.814 557.083 599.095C567.352 594.648 577.578 594.735 587.912 598.875C591.04 601.432 595.007 603.934 596.772 607.648L596.625 609.039C593.891 609.819 590.752 607.648 587.978 606.92C566.963 601.403 551.808 610.736 540.46 628.092L537.835 617.233Z"/>
	<path fill="#D05A2C" transform="scale(0.666667 0.666992)" d="M198.64 864.594L198.861 858.21L199.875 857.457C226.936 869.672 255.423 868.772 284.085 873.266L284.659 873.576C289.489 876.119 295.211 876.028 300.569 875.839C300.35 877.122 300.318 877.015 299.25 877.786L290.808 878.59C300.822 880.691 312.497 880.103 322.659 879.779L386.157 876.051C375.692 883.443 363.344 889.168 350.989 892.701C346.277 894.048 341.023 894.682 336.569 896.629C334.476 897.011 332.468 897.121 330.347 897.186C303.7 898.011 220.768 898.212 202.625 880.587C198.122 876.214 198.692 870.341 198.64 864.594Z"/>
	<path fill="#FCF075" transform="scale(0.666667 0.666992)" d="M198.64 864.594L198.861 858.21L199.875 857.457C226.936 869.672 255.423 868.772 284.085 873.266L284.659 873.576C289.489 876.119 295.211 876.028 300.569 875.839C300.35 877.122 300.318 877.015 299.25 877.786L290.808 878.59C271.099 879.032 251.035 876.699 231.638 873.442C220.118 871.508 209.19 870.048 198.64 864.594Z"/>
	<defs>
		<linearGradient id="gradient_12" gradientUnits="userSpaceOnUse" x1="347.30301" y1="531.92517" x2="298.06827" y2="460.01166">
			<stop offset="0" stop-color="#1E5F28"/>
			<stop offset="1" stop-color="#21A253"/>
		</linearGradient>
	</defs>
	<path fill="url(#gradient_12)" transform="scale(0.666667 0.666992)" d="M275.082 477.331L275.705 476.944C278.246 475.483 279.53 473.432 281.813 471.869C290.518 465.909 299.734 460.052 308.053 453.551C310.866 451.353 314.607 450.385 317.052 447.83C318.606 446.205 320.338 445.151 322.227 443.964C331.711 463.704 340.339 483.874 347.093 504.726L354.417 530.547L328.449 532.997C322.639 528.998 317.676 523.814 312.649 518.895L289.137 494.396C284.353 489.044 278.809 483.469 275.082 477.331Z"/>
	<path fill="#FEFEFC" transform="scale(0.666667 0.666992)" d="M475.466 527.279C475.072 528.114 474.534 528.797 474 529.55L465.569 529.733L465.3 487.428C465.185 477.317 463.908 466.097 466.224 456.205C467.636 450.172 470.898 444.592 474.77 439.82C480.441 432.83 488.934 427.467 497.839 425.903C507.815 424.151 519.752 425.409 529.95 425.45L598.175 425.713L852.293 425.997L927.222 426.132C940.031 426.176 952.881 427.322 965.625 425.964C972.363 430.964 1017.9 426.788 1030.37 429.362C1020.55 432.058 1010.23 431.419 1000.14 431.435L960.977 431.309L807.538 432.003L644.395 432.443L551.452 432.083C536.957 432.064 521.5 431.007 507.139 432.752C500.09 433.608 492.253 437.741 487.08 442.567C478.219 450.835 475.108 460.464 474.893 472.352L475.466 527.279Z"/>
	<path fill="#6FFBF2" transform="scale(0.666667 0.666992)" d="M141.947 513.232L134.054 488.167C146.96 486.338 159.428 484.936 172.5 485.462C205.781 486.8 238.452 500.27 264.97 520.087C267.743 522.16 270.507 524.464 272.86 527.004C279.355 530.362 284.099 536.299 288.917 541.654C280.845 544.982 272.825 548.599 268.469 556.738C264.776 553.486 260.039 550.737 255.998 547.902C243.049 538.815 230.17 530.636 215.617 524.356C213.431 525.115 212.944 525.327 211.422 527.046C208.947 527.393 202.466 524.09 200.012 523.146C197.262 522.89 194.554 522.163 191.862 521.562C189.289 520.006 185.185 519.288 182.25 518.413L161.048 512.19C157.26 511.082 153.55 509.146 149.646 508.659L148.314 510.122C145.989 509.849 143.893 511.955 141.947 513.232Z"/>
	<path fill="#3FE167" transform="scale(0.666667 0.666992)" d="M194.138 514.232C188.265 513.103 181.849 509.402 176.424 506.879L149.373 494.317C154.129 492.984 160.53 493.23 165.457 493.247C188.201 493.326 212.024 497.059 232.774 506.52C224.73 514.086 215.094 514.586 205.585 519.377L215.617 524.356C213.431 525.115 212.944 525.327 211.422 527.046C208.947 527.393 202.466 524.09 200.012 523.146C197.262 522.89 194.554 522.163 191.862 521.562L194.138 514.232Z"/>
	<path fill="#13C2A9" transform="scale(0.666667 0.666992)" d="M194.138 514.232L205.585 519.377L215.617 524.356C213.431 525.115 212.944 525.327 211.422 527.046C208.947 527.393 202.466 524.09 200.012 523.146C197.262 522.89 194.554 522.163 191.862 521.562L194.138 514.232Z"/>
	<defs>
		<linearGradient id="gradient_13" gradientUnits="userSpaceOnUse" x1="224.55641" y1="504.57953" x2="270.02969" y2="555.05219">
			<stop offset="0" stop-color="#29A650"/>
			<stop offset="1" stop-color="#1C752F"/>
		</linearGradient>
	</defs>
	<path fill="url(#gradient_13)" transform="scale(0.666667 0.666992)" d="M232.774 506.52C238.401 508.649 243.98 511.031 249.288 513.874C256.286 517.621 265.249 525.837 272.86 527.004C279.355 530.362 284.099 536.299 288.917 541.654C280.845 544.982 272.825 548.599 268.469 556.738C264.776 553.486 260.039 550.737 255.998 547.902C243.049 538.815 230.17 530.636 215.617 524.356L205.585 519.377C215.094 514.586 224.73 514.086 232.774 506.52Z"/>
	<defs>
		<linearGradient id="gradient_14" gradientUnits="userSpaceOnUse" x1="267.34949" y1="569.54724" x2="184.33047" y2="560.43097">
			<stop offset="0" stop-color="#21853B"/>
			<stop offset="1" stop-color="#29BB57"/>
		</linearGradient>
	</defs>
	<path fill="url(#gradient_14)" transform="scale(0.666667 0.666992)" d="M200.012 523.146C202.466 524.09 208.947 527.393 211.422 527.046C212.944 525.327 213.431 525.115 215.617 524.356C230.17 530.636 243.049 538.815 255.998 547.902C260.039 550.737 264.776 553.486 268.469 556.738L266.395 560.816L266.203 561.694C264.961 567.683 265.409 574.198 265.424 580.304L265.417 609.072C243.092 603.06 221.014 595.611 202.186 581.794C201.865 580.11 199.921 578.712 198.67 577.525L183.26 563.832C184.514 547.81 189.788 535.462 200.012 523.146Z"/>
	<path fill="#3FE167" transform="scale(0.666667 0.666992)" d="M215.617 524.356C230.17 530.636 243.049 538.815 255.998 547.902C260.039 550.737 264.776 553.486 268.469 556.738L266.395 560.816L211.422 527.046C212.944 525.327 213.431 525.115 215.617 524.356Z"/>
	<path fill="#455067" transform="scale(0.666667 0.666992)" d="M458.461 838.33C460.23 838.946 462.429 843.338 463.658 845.081C466.095 848.54 468.997 851.984 471.991 854.967C480.823 863.768 492.049 869.046 504.375 870.832C516.384 872.571 528.311 871.012 540.337 870.996L620.906 870.961L901.742 870.982L906.064 881.089C900.268 881.887 894.326 881.548 888.487 881.531L862.312 881.481L773.17 881.524L599.754 881.653L507.959 881.629C491.256 881.224 477.525 875.712 466.027 863.528C464.106 861.492 459.11 856.281 458.365 853.735C457.252 849.934 458.337 842.479 458.461 838.33Z"/>
	<path fill="#21A34D" transform="scale(0.666667 0.666992)" d="M304.576 402.738C293.62 383.045 278.34 364.846 262.338 349.025C256.454 343.208 249.688 338.169 244.221 331.972C275.415 344.361 303.864 365.695 325.538 391.183C331.646 398.367 337.248 406.097 342.406 413.986C344.542 417.254 349.494 427.773 352.128 428.912C356.857 438.259 359.639 449.804 361.857 460.001C366.936 483.353 368.641 506.402 371.405 530.046L356.391 530.376L354.417 530.547L347.093 504.726C340.339 483.874 331.711 463.704 322.227 443.964L321.421 442.166L300.44 406.103L304.576 402.738Z"/>
	<path fill="#3FE167" transform="scale(0.666667 0.666992)" d="M304.576 402.738C311.215 411.819 315.853 420.975 321.127 430.83C332.068 451.277 341.006 472.236 348.062 494.371C351.764 505.987 355.292 518.214 356.391 530.376L354.417 530.547L347.093 504.726C340.339 483.874 331.711 463.704 322.227 443.964L321.421 442.166L300.44 406.103L304.576 402.738Z"/>
	<defs>
		<linearGradient id="gradient_15" gradientUnits="userSpaceOnUse" x1="298.73828" y1="458.08328" x2="234.18494" y2="364.80692">
			<stop offset="0" stop-color="#22A353"/>
			<stop offset="1" stop-color="#26FA8A"/>
		</linearGradient>
	</defs>
	<path fill="url(#gradient_15)" transform="scale(0.666667 0.666992)" d="M263.923 461.298C263.968 454.774 255.929 445.509 253.125 439.411C250.318 433.306 247.876 426.789 245.77 420.406C239.426 401.169 236.26 380.656 236.12 360.424C247.468 363.075 259.537 366.116 269.625 372.128C282.412 379.75 292.479 393.858 300.44 406.103L321.421 442.166L322.227 443.964C320.338 445.151 318.606 446.205 317.052 447.83C314.607 450.385 310.866 451.353 308.053 453.551C299.734 460.052 290.518 465.909 281.813 471.869C279.53 473.432 278.246 475.483 275.705 476.944L275.082 477.331L273.774 476.249L263.923 461.298Z"/>
	<path fill="#21A34D" transform="scale(0.666667 0.666992)" d="M321.421 442.166L322.227 443.964C320.338 445.151 318.606 446.205 317.052 447.83C314.607 450.385 310.866 451.353 308.053 453.551C299.734 460.052 290.518 465.909 281.813 471.869C279.53 473.432 278.246 475.483 275.705 476.944L275.082 477.331L273.774 476.249L291.761 462.517C293.661 461.17 295.933 460.132 297.643 458.586L298.406 457.89C299.474 457.155 300.937 455.517 302.062 455.218C304.612 454.539 306.504 451.566 309.026 450.55C313.221 448.859 317.644 444.78 321.421 442.166Z"/>
	<path fill="#F9AD26" transform="scale(0.666667 0.666992)" d="M386.353 648.918L386.263 659.123L343.945 662.193C313.589 663.163 282.293 662.118 252.213 657.789C240.185 656.058 226.789 653.931 215.732 648.7C213.564 647.674 210.951 646.4 210.104 644.032C210.904 642.988 211.768 642.015 212.816 641.214C219.897 635.803 229.964 634.17 238.5 632.247C272.073 624.682 306.85 622.784 341.192 622.701C356.407 622.664 371.064 622.519 386.182 624.591L386.522 633.321L386.353 648.918Z"/>
	<path fill="#FCF075" transform="scale(0.666667 0.666992)" d="M386.353 648.918C354.103 652.603 322.499 653.196 290.108 651.652C270.519 650.718 251 650.26 232.661 642.513C245.832 635.556 260.459 635.366 275.008 634.017C312.076 630.581 349.436 629.858 386.522 633.321L386.353 648.918Z"/>
	<path fill="#FCF075" transform="scale(0.666667 0.666992)" d="M683.287 351.065C682.797 313.796 695.772 278.645 721.954 251.86C747.587 225.636 783.239 209.498 820.06 209.108C850.238 208.788 880.121 216.272 904.754 234.294C911.489 239.221 917.44 245.215 923.394 251.033C911.022 252.808 897.75 251.693 885.631 254.284C856.613 237.973 825.836 230.274 792.984 239.557C763.238 247.962 737.928 267.353 722.926 294.429C713.228 311.934 708.112 332.285 708.972 352.321L683.287 351.065Z"/>
	<path fill="#F9AD26" transform="scale(0.666667 0.666992)" d="M1135.05 571.949C1140.1 570.419 1148.86 571.518 1154.24 571.528L1223.3 574.661C1240.21 576.216 1257.24 577.886 1273.34 583.731C1276.59 584.913 1281.65 586.694 1283.23 590.019C1282.76 591.93 1282.01 593.108 1280.63 594.512C1267.75 607.684 1203.92 611.965 1185.4 612.276C1172.11 613.517 1158.26 613.284 1144.92 613.131C1124.08 612.893 1102.91 611.817 1082.36 608.269C1065.83 605.415 1050.08 601.333 1036.58 590.964C1053.31 577.914 1077.12 576.545 1097.58 574.919L1135.05 571.949Z"/>
	<path fill="#FCF075" transform="scale(0.666667 0.666992)" d="M1131.88 578.064C1141.67 577.145 1151.86 577.547 1161.7 577.555L1221.78 579.781C1230.78 580.549 1252.88 581.13 1258.88 588.24L1258.28 589.413C1238.43 598.695 1211.21 599.344 1189.62 600.483L1151.54 600.92C1128.84 601.069 1105.54 601 1083.21 596.472C1076.91 595.195 1070.25 594.316 1065.01 590.375C1064.19 588.425 1064.27 588.408 1064.82 586.508C1069.58 581.865 1079.42 581.489 1085.78 580.809L1131.88 578.064Z"/>
	<defs>
		<linearGradient id="gradient_16" gradientUnits="userSpaceOnUse" x1="1346.1587" y1="416.71951" x2="1352.6055" y2="630.28442">
			<stop offset="0" stop-color="#0C6F83"/>
			<stop offset="1" stop-color="#11D8BB"/>
		</linearGradient>
	</defs>
	<path fill="url(#gradient_16)" transform="scale(0.666667 0.666992)" d="M1331.82 416.001C1352.86 416.019 1372.37 414.432 1388.39 430.695C1397.66 440.113 1403.29 453.757 1403.07 466.989C1402.96 473.68 1401.29 480.491 1398.38 486.515C1394.1 495.361 1388.01 503.547 1382.82 511.882L1353.26 559.953L1323.79 608.574C1318.22 617.892 1313.43 628.1 1306.51 636.523L1306.54 604.675C1306.53 600.884 1307.23 595.114 1306 591.599C1304.45 587.133 1300.22 583.181 1296.94 579.888L1295.79 578.776C1300.84 568.698 1308.14 560.368 1314.59 551.217L1342.47 510.603C1347.04 503.955 1353.2 496.699 1356.22 489.183C1357.73 485.441 1358.2 480.459 1356.89 476.601C1355.34 472.017 1349.31 464.726 1344.49 463.589L1343.6 463.503L1341.87 472.498L1328.81 468.756C1332.25 460.775 1339.35 446.829 1335.91 438.09L1335.74 437.692C1338.06 432.892 1333.42 421.269 1331.82 416.001Z"/>
	<defs>
		<linearGradient id="gradient_17" gradientUnits="userSpaceOnUse" x1="1270.1218" y1="358.60547" x2="1194.4307" y2="405.56253">
			<stop offset="0" stop-color="#1EFF95"/>
			<stop offset="1" stop-color="#24AA5B"/>
		</linearGradient>
	</defs>
	<path fill="url(#gradient_17)" transform="scale(0.666667 0.666992)" d="M1152.05 383.914C1155.16 380.075 1160.15 377.794 1164.31 375.246L1183.09 363.666C1188.63 360.512 1195.31 358.49 1201.38 356.577C1224.97 349.142 1246.64 347.879 1270.48 354.542L1263.53 378.033C1266.78 378.03 1270.05 378.127 1273.27 377.634L1265.99 391.914C1260.22 401.619 1253.69 410.276 1246.63 419.079C1243.54 422.939 1240.17 427.951 1235.8 430.415C1230.02 433.677 1222.16 435.377 1215.9 438.086L1188.92 452.526C1188.05 452.54 1185.4 452.827 1184.78 452.134C1183.1 450.243 1182.26 445.9 1181.13 443.543C1178.88 438.85 1175.28 434.498 1172.37 430.192C1169.27 425.611 1166.87 419.25 1161.74 416.746L1135.79 439.729L1127.36 447.72L1126.9 444.316C1126.01 432.535 1124.37 422.015 1120.27 410.853L1130.63 402.26C1135.99 395.651 1145.33 389.271 1152.05 383.914Z"/>
	<path fill="#6FFBF2" transform="scale(0.666667 0.666992)" d="M1263.53 378.033C1266.78 378.03 1270.05 378.127 1273.27 377.634L1265.99 391.914L1260.38 390.522C1259.49 387.466 1262.54 381.306 1263.53 378.033Z"/>
	<path fill="#FEFEFC" transform="scale(0.666667 0.666992)" d="M1236.5 364.11C1243.93 360.986 1250.31 358.399 1258.5 357.977C1260.48 358.968 1260.51 359.197 1261.5 361.213C1261.37 363.294 1260.93 364.257 1259.62 365.872C1253.99 368.937 1246.53 369.148 1240.37 371.121C1238.45 369.22 1237.57 366.546 1236.5 364.11Z"/>
	<defs>
		<linearGradient id="gradient_18" gradientUnits="userSpaceOnUse" x1="1174.3147" y1="390.70502" x2="1199.9236" y2="412.96945">
			<stop offset="0" stop-color="#5DF377"/>
			<stop offset="1" stop-color="#56C3C2"/>
		</linearGradient>
	</defs>
	<path fill="url(#gradient_18)" transform="scale(0.666667 0.666992)" d="M1236.5 364.11C1237.57 366.546 1238.45 369.22 1240.37 371.121L1208.49 386.616C1202.07 389.799 1195.36 392.389 1189.73 396.906C1180.24 403.149 1170.04 408.911 1161.74 416.746L1135.79 439.729C1135.81 438.725 1136.04 437.758 1136.53 436.874L1136.92 436.232C1138.76 432.89 1142.02 430.094 1142.49 426.242C1146.12 421.491 1151.1 416.911 1155.79 413.238C1158.8 410.882 1162.47 408.738 1164.8 405.683C1170.3 402.294 1175.08 397.256 1180.45 393.555C1197.64 381.714 1217.04 371.584 1236.5 364.11Z"/>
	<defs>
		<linearGradient id="gradient_19" gradientUnits="userSpaceOnUse" x1="1202.5479" y1="416.8208" x2="1174.0953" y2="434.6153">
			<stop offset="0" stop-color="#24AB5B"/>
			<stop offset="1" stop-color="#258B45"/>
		</linearGradient>
	</defs>
	<path fill="url(#gradient_19)" transform="scale(0.666667 0.666992)" d="M1161.74 416.746C1170.04 408.911 1180.24 403.149 1189.73 396.906C1193.28 399.696 1194.35 404.325 1196.62 408.061C1200.48 414.43 1204.76 421.194 1209.19 427.16C1211.99 430.93 1211.55 436.145 1215.9 438.086L1188.92 452.526C1188.05 452.54 1185.4 452.827 1184.78 452.134C1183.1 450.243 1182.26 445.9 1181.13 443.543C1178.88 438.85 1175.28 434.498 1172.37 430.192C1169.27 425.611 1166.87 419.25 1161.74 416.746Z"/>
	<path fill="#1F863C" transform="scale(0.666667 0.666992)" d="M1152.05 383.914L1152.69 383.774C1155.91 382.985 1156.98 381.237 1159.59 379.589L1174.57 370.509C1177.08 377.17 1182.16 382.989 1183.88 389.728C1182.76 390.488 1181.69 391.149 1180.5 391.783C1177.81 393.22 1175.64 395.702 1173.03 397.362C1171.04 398.628 1169.69 400.526 1167.66 401.754C1166.13 402.678 1165.48 404.092 1164.8 405.683C1162.47 408.738 1158.8 410.882 1155.79 413.238C1151.1 416.911 1146.12 421.491 1142.49 426.242C1142.02 430.094 1138.76 432.89 1136.92 436.232L1136.53 436.874C1136.04 437.758 1135.81 438.725 1135.79 439.729L1127.36 447.72L1126.9 444.316C1126.01 432.535 1124.37 422.015 1120.27 410.853L1130.63 402.26C1135.99 395.651 1145.33 389.271 1152.05 383.914Z"/>
	<path fill="#285D24" transform="scale(0.666667 0.666992)" d="M1120.27 410.853L1130.63 402.26C1129.45 406.553 1122.99 408.254 1121.97 411.723C1121.67 412.749 1125.36 421.65 1125.75 423.857L1126.23 424.361C1128.73 426.998 1130.69 430.011 1132.71 433.013C1134.57 431.014 1138.18 426.174 1140.73 425.647L1141.62 426.149L1142.49 426.242C1142.02 430.094 1138.76 432.89 1136.92 436.232L1136.53 436.874C1136.04 437.758 1135.81 438.725 1135.79 439.729L1127.36 447.72L1126.9 444.316C1126.01 432.535 1124.37 422.015 1120.27 410.853Z"/>
	<path fill="#4CF387" transform="scale(0.666667 0.666992)" d="M1141.62 426.149L1142.49 426.242C1142.02 430.094 1138.76 432.89 1136.92 436.232L1136.53 436.874C1136.04 437.758 1135.81 438.725 1135.79 439.729L1127.36 447.72L1126.9 444.316C1127.08 443.213 1127.15 440.462 1127.62 439.671C1128.31 438.528 1130.33 437.026 1131.33 436.049L1141.62 426.149Z"/>
	<defs>
		<linearGradient id="gradient_20" gradientUnits="userSpaceOnUse" x1="938.54919" y1="677.65161" x2="961.7901" y2="574.36792">
			<stop offset="0" stop-color="#0D75A2"/>
			<stop offset="1" stop-color="#1296C2"/>
		</linearGradient>
	</defs>
	<path fill="url(#gradient_20)" transform="scale(0.666667 0.666992)" d="M944.816 569.639C948.143 568.17 955.163 569.456 958.672 569.891C967.092 570.935 973.13 573.768 980.25 578.139L982.531 579.571C993.928 587.683 1002.35 601.87 1004.78 615.452C1007.16 628.728 1003.42 645.118 995.597 656.178C985.689 670.184 972.235 677.281 955.68 680.195C941.934 681.857 928.351 677.571 917.233 669.548C906.045 661.475 897.494 649.254 895.515 635.47C894.697 629.775 893.688 623.775 894.743 618.003L894.862 617.404L894.994 616.65C896.532 608.084 898.574 600.972 903.487 593.723L904.211 592.645L905.26 590.834C912.964 579.696 924.953 574.059 937.5 570.552C939.941 569.87 942.29 569.792 944.816 569.639Z"/>
	<path fill="#00313B" transform="scale(0.666667 0.666992)" d="M944.306 589.743C953.152 589.225 961.324 589.912 969.146 594.573C978.707 600.27 985.905 608.537 988.612 619.519C991.161 629.864 988.141 641.118 982.642 649.997C977.282 658.651 968.129 663.037 958.594 665.359C949.757 666.264 939.891 665.861 931.996 661.358C922.108 655.718 916.169 646.265 913.398 635.487C911.071 626.434 913.333 615.787 918.035 607.888C924.205 597.521 932.971 592.685 944.306 589.743Z"/>
	<path fill="#E87F21" transform="scale(0.666667 0.666992)" d="M969.562 600.341C976.38 606.679 981.332 613.449 981.757 623.109C982.168 632.458 979.454 640.605 973.055 647.516C967.595 653.413 959.345 657.144 951.312 657.397C942.816 657.664 933.735 654.714 927.521 648.806C921.822 643.388 919.211 636.661 917.752 629.081L935.125 635.78L936.085 636.105C943.431 638.506 954.123 637.088 960.83 633.521L961.5 633.159C965.374 631.125 968.608 627.665 970.506 623.752C974.077 616.388 972.092 607.717 969.562 600.341Z"/>
	<path fill="#FAD43E" transform="scale(0.666667 0.666992)" d="M920.197 614.097C920.947 611.91 921.854 609.949 923.142 608.024C927.765 601.115 935.375 596.018 943.57 594.53C952.607 592.888 961.449 594.483 968.955 599.859L969.562 600.341C972.092 607.717 974.077 616.388 970.506 623.752C968.608 627.665 965.374 631.125 961.5 633.159L960.83 633.521C954.123 637.088 943.431 638.506 936.085 636.105L935.125 635.78L917.752 629.081C917.914 623.826 918.616 619.12 920.197 614.097Z"/>
	<path fill="#FEFEFC" transform="scale(0.666667 0.666992)" d="M920.197 614.097C920.947 611.91 921.854 609.949 923.142 608.024C927.765 601.115 935.375 596.018 943.57 594.53C952.607 592.888 961.449 594.483 968.955 599.859L968.405 599.985C964.487 600.751 960.854 599.425 956.95 599.463C944.498 599.581 932.583 605.594 925.388 615.718L919.48 625.977C919.86 622.039 920.383 618.057 920.197 614.097Z"/>
	<defs>
		<linearGradient id="gradient_21" gradientUnits="userSpaceOnUse" x1="771.44153" y1="368.75607" x2="775.92297" y2="447.95984">
			<stop offset="0" stop-color="#476586"/>
			<stop offset="1" stop-color="#637499"/>
		</linearGradient>
	</defs>
	<path fill="url(#gradient_21)" transform="scale(0.666667 0.666992)" d="M449.131 440.361C449.756 432.24 452.481 424.071 456.594 417.075C466.512 400.209 482.554 388.91 501.39 384.245C518.212 380.079 537.728 382.045 554.988 382.092L616.71 382.118L887.837 381.944L998.812 381.937L1030.92 381.947C1038.13 381.951 1045.41 381.637 1052.56 382.674C1063.64 384.279 1074.62 389.524 1082.96 396.955C1086.14 399.785 1089.08 403.24 1092.77 405.386L1093.26 405.658C1097.11 409.512 1100.3 421.114 1100.24 426.479C1100.22 427.564 1100.08 428.607 1099.87 429.668C1097.31 431.184 1096.38 431.239 1093.5 431.309C1089.22 428.323 1086.89 423.895 1083.87 419.787C1076.39 409.617 1063.94 401.638 1051.68 398.935C1039.61 396.273 1025.87 397.531 1013.52 397.528L957.911 397.52L737.98 397.527L581.679 397.567L536.275 397.649C525.948 397.688 514.946 397.201 504.75 399.011C484.605 402.587 466.365 414.817 454.836 431.552L449.131 440.361Z"/>
	<path fill="#455067" transform="scale(0.666667 0.666992)" d="M811.392 165.694C823.532 164.334 834.485 163.407 846.75 164.493C879.06 167.355 912.809 183.454 937.811 203.437C955.197 217.333 968.738 233.528 980.841 252.109C976.524 264.86 971.773 276.639 964.664 288.133C960.639 279.671 956.686 271.116 951.586 263.234C934.079 236.179 907.346 214.479 876.961 203.608C837.284 189.413 794.102 191.685 756 209.717C723.361 225.163 691.406 255.37 679.23 290.004L669.326 326.835L641.728 317.924C645.797 298.128 650.891 281.13 659.475 262.704C666.456 248.979 674.605 236.744 684.781 225.198C708.878 197.856 742.893 177.907 778.384 169.8C789.346 167.297 800.19 166.393 811.392 165.694Z"/>
	<path fill="#FEFEFC" transform="scale(0.666667 0.666992)" d="M811.392 165.694C828.492 166.093 845.235 168.016 861.948 171.686C867.832 172.977 873.422 174.985 879.167 176.741C882.821 177.858 887.668 178.96 890.763 181.275C887.279 180.857 884.213 179.146 880.874 178.18C872.247 175.686 863.426 173.69 854.543 172.375C801.932 164.583 750.846 178.677 709.227 211.525C697.359 220.892 686.825 232.308 677.712 244.336C674.167 249.016 667.503 261.125 662.25 263.412L659.475 262.704C666.456 248.979 674.605 236.744 684.781 225.198C708.878 197.856 742.893 177.907 778.384 169.8C789.346 167.297 800.19 166.393 811.392 165.694Z"/>
	<defs>
		<linearGradient id="gradient_22" gradientUnits="userSpaceOnUse" x1="1167.3643" y1="468.97726" x2="1258.5931" y2="531.34076">
			<stop offset="0" stop-color="#257F38"/>
			<stop offset="1" stop-color="#20B155"/>
		</linearGradient>
	</defs>
	<path fill="url(#gradient_22)" transform="scale(0.666667 0.666992)" d="M1158.75 491.614C1180.96 471.971 1208.47 455.667 1236.16 445.207L1238.72 451.597C1250.12 449.375 1260.93 446.716 1272.64 447.181C1284.06 447.216 1296.51 449.092 1307.11 453.449L1298.52 474.869C1296.05 480.279 1292.72 485.115 1289.99 490.378C1291.99 491.902 1294.91 493.645 1296.55 495.486C1287.15 507.863 1276.74 518.782 1264.72 528.637C1254.07 537.866 1242.49 545.534 1230.63 553.086C1228.21 554.629 1223 558.515 1220.3 558.922C1214.64 559.771 1206.59 558.17 1200.7 558.049L1135.32 556.628L1134.87 556.756C1132.24 556.634 1129.56 557.034 1127.37 555.511C1131.02 550.916 1136.22 547.316 1140.66 543.508L1163.59 523.877L1163.1 523.362L1161.94 523.815C1159.74 524.588 1159.23 526.504 1157.44 527.566C1153.51 529.898 1150.6 534.051 1146.75 536.381C1145.09 537.385 1144.09 538.519 1142.81 539.944C1143.16 537.867 1143.73 534.946 1143.08 532.93C1142.26 530.401 1143.13 527.9 1142.06 525.372C1141.72 524.567 1141.48 524.194 1141.42 523.29L1141.41 522.618C1141.32 521.913 1141.08 521.341 1141.09 520.604C1141.13 518.758 1140.68 517.484 1140.29 515.711C1140.08 514.73 1139.35 511.553 1139.69 510.601C1140.04 509.613 1142.89 507.238 1143.71 506.473C1148.48 502.055 1154.96 497.906 1158.33 492.319L1158.75 491.614Z"/>
	<path fill="#FEFEFC" transform="scale(0.666667 0.666992)" d="M1252.22 469.009C1259.02 465.184 1285.7 452.702 1292.47 454.79C1293.61 455.141 1293.84 455.922 1294.48 456.862C1294.54 457.744 1294.97 459.954 1294.42 460.569C1290.21 465.262 1279.51 466.628 1273.63 468.652L1251.7 476.955C1250.65 474.579 1251.78 471.563 1252.22 469.009Z"/>
	<path fill="#4CF387" transform="scale(0.666667 0.666992)" d="M1272.64 447.181C1284.06 447.216 1296.51 449.092 1307.11 453.449L1298.52 474.869C1296.05 480.279 1292.72 485.115 1289.99 490.378C1291.99 491.902 1294.91 493.645 1296.55 495.486C1287.15 507.863 1276.74 518.782 1264.72 528.637C1261.91 528.798 1258.57 529.395 1255.88 528.504C1259.37 524.3 1263.69 521.207 1267.46 517.275C1274.64 509.794 1280.13 501.538 1285.88 492.983C1288 489.825 1290.4 486.941 1292.11 483.512C1296.94 473.784 1300.86 464.329 1304.68 454.166L1296.95 451.924C1292.83 450.491 1287.98 449.707 1283.62 449.24C1280.47 448.902 1275.58 449.253 1272.97 447.436L1272.64 447.181Z"/>
	<path fill="#3FE167" transform="scale(0.666667 0.666992)" d="M1163.59 523.877C1164.98 523.617 1168.27 520.576 1169.57 519.602L1187.09 506.877C1199.41 498.407 1211.87 489.843 1224.93 482.542L1252.22 469.009C1251.78 471.563 1250.65 474.579 1251.7 476.955C1242.71 479.649 1236.27 484.589 1228.33 489.143C1198.78 506.089 1171.7 523.926 1146.06 546.474C1142.54 549.568 1137.81 552.644 1135.32 556.628L1134.87 556.756C1132.24 556.634 1129.56 557.034 1127.37 555.511C1131.02 550.916 1136.22 547.316 1140.66 543.508L1163.59 523.877Z"/>
	<path fill="#4CF387" transform="scale(0.666667 0.666992)" d="M731.613 338.56C732.973 325.599 737.001 312.697 743.841 301.574C756.984 280.199 777.488 264.835 802.069 259.169C826.098 253.631 852.156 258.225 873 271.477C893.353 284.416 907.504 303.717 912.713 327.275L912.656 327.597L879.107 351.272C879.964 354.896 879.566 359.287 880.998 362.685C877.846 363.48 874.247 363.108 871.003 363.032L846.375 362.971L845.27 361.292C843.323 358.125 841.456 356.606 838.201 354.873L827.883 352L827.827 362.919L814.612 363.052C810.796 363.157 807.199 363.145 803.418 362.59C804.67 362.442 805.36 362.276 806.424 361.588L806.434 358.239C806.403 357.036 806.214 355.411 805.295 354.545C802.236 351.659 797.499 350.243 794.02 347.739C788.716 343.921 783.978 338.782 779.192 334.315L732.404 340.057L731.613 338.56Z"/>
	<path fill="#21A34D" transform="scale(0.666667 0.666992)" d="M828.885 273.139C833.852 271.238 845.554 275.243 850.362 277.396C860.922 282.125 869.476 289.504 873.511 300.508C874.969 304.485 878.161 316.634 876.485 320.468L850.596 321.894L846.375 317.374L843.263 317.798C840.385 314.895 839.49 312.207 839.358 308.203L841.632 307.22C841.847 309.534 841.601 312.423 843 314.28L866.24 312.996C865.517 305.739 864.99 298.62 860.779 292.391C853.491 281.609 842.137 277.434 829.875 275.207L828.885 273.139Z"/>
	<path fill="#FEFEFC" transform="scale(0.666667 0.666992)" d="M776.452 300.353C777.93 297.516 778.717 294.709 780.518 291.947C785.649 284.077 794.785 278.204 804.07 276.719C806.984 276.253 811.517 276.302 814.062 274.962L815.682 268.082C818.674 267.947 824.621 267.347 827.216 268.968C828.231 269.602 828.548 271.943 828.885 273.139L829.875 275.207C842.137 277.434 853.491 281.609 860.779 292.391C864.99 298.62 865.517 305.739 866.24 312.996L843 314.28C841.601 312.423 841.847 309.534 841.632 307.22L839.358 308.203L837.901 308.325L836.892 327.58C845.115 329.13 852.619 331.914 859.854 336.129C861.944 336.718 863.895 337.332 866.085 337.373L868.125 336.008C873.139 338.066 876.357 343.993 878.336 348.723C878.691 349.571 878.913 350.376 879.107 351.272C879.964 354.896 879.566 359.287 880.998 362.685C877.846 363.48 874.247 363.108 871.003 363.032L846.375 362.971L845.27 361.292C843.323 358.125 841.456 356.606 838.201 354.873L827.883 352L827.827 362.919L814.612 363.052C810.796 363.157 807.199 363.145 803.418 362.59C804.67 362.442 805.36 362.276 806.424 361.588L806.434 358.239C806.403 357.036 806.214 355.411 805.295 354.545C802.236 351.659 797.499 350.243 794.02 347.739C788.716 343.921 783.978 338.782 779.192 334.315C775.017 328.151 772.396 321.169 772.736 313.663C772.921 309.563 773.349 303.233 776.452 300.353Z"/>
	<path fill="#1F863C" transform="scale(0.666667 0.666992)" d="M859.854 336.129C861.944 336.718 863.895 337.332 866.085 337.373L868.125 336.008C873.139 338.066 876.357 343.993 878.336 348.723C878.691 349.571 878.913 350.376 879.107 351.272C879.964 354.896 879.566 359.287 880.998 362.685C877.846 363.48 874.247 363.108 871.003 363.032C869.671 351.796 867.249 344.769 859.854 336.129Z"/>
	<path fill="#1F863C" transform="scale(0.666667 0.666992)" d="M779.192 334.315C775.017 328.151 772.396 321.169 772.736 313.663C772.921 309.563 773.349 303.233 776.452 300.353C774.666 311.743 773.714 323.772 781.023 333.568C788.053 342.993 798.413 346.375 809.256 349.235C809.981 349.426 814.189 350.212 814.523 350.581C814.834 350.923 814.681 361.665 814.612 363.052C810.796 363.157 807.199 363.145 803.418 362.59C804.67 362.442 805.36 362.276 806.424 361.588L806.434 358.239C806.403 357.036 806.214 355.411 805.295 354.545C802.236 351.659 797.499 350.243 794.02 347.739C788.716 343.921 783.978 338.782 779.192 334.315Z"/>
	<path fill="#1F863C" transform="scale(0.666667 0.666992)" d="M836.892 327.58L828.624 325.84L828.468 294.448C831.414 295.483 834.667 296.77 837.067 298.814C839.9 301.227 841.269 303.454 841.632 307.22L839.358 308.203L837.901 308.325L836.892 327.58Z"/>
	<path fill="#1F863C" transform="scale(0.666667 0.666992)" d="M813.725 320.978L812.545 321.564C811.233 321.387 809.937 321.151 808.704 320.657C804.561 318.994 800.667 316.409 799.071 312.028C797.964 308.988 798.308 304.929 799.774 302.066C802.717 296.319 808.803 295.044 814.434 293.282L814.554 302.457C814.563 306.871 815.729 317.388 813.725 320.978Z"/>
	<path fill="#4CF387" transform="scale(0.666667 0.666992)" d="M814.554 302.457C814.563 306.871 815.729 317.388 813.725 320.978C813.488 318.167 811.191 316.597 809.206 314.702C809.3 309.365 811.274 306.523 814.554 302.457Z"/>
	<path fill="#455067" transform="scale(0.666667 0.666992)" d="M599.769 546.248C606.053 545.72 612.371 545.952 618.67 546.048C626.621 546.168 635.864 545.432 642.61 550.357C648.016 554.303 651.084 559.775 652.787 566.11C653.57 569.019 653.262 572.287 653.267 575.291L653.28 592.57L653.206 655.568L621.369 655.727C624.741 640.299 624.367 626.145 615.69 612.355C608.683 601.218 596.862 592.221 583.878 589.392C570.758 586.534 557.903 589.283 546.728 596.588C535.847 603.7 527.803 616.123 525.305 628.825C522.461 643.295 526.691 655.596 532.914 668.464L403.362 669.2L403.388 599.335L403.309 584.209C403.239 581.412 402.79 578.212 403.402 575.492L403.398 574.259C403.422 566.582 405.49 559.178 411.124 553.693C414.681 550.231 418.754 547.947 423.661 547.128C431.424 545.831 439.632 546.194 447.476 546.185L481.376 546.164L599.769 546.248Z"/>
	<path fill="#FEFEFC" transform="scale(0.666667 0.666992)" d="M403.402 575.492L403.398 574.259C403.422 566.582 405.49 559.178 411.124 553.693C414.681 550.231 418.754 547.947 423.661 547.128C431.424 545.831 439.632 546.194 447.476 546.185L481.376 546.164L599.769 546.248C607.909 546.835 618.918 545.196 626.581 547.358C631.97 548.877 637.95 553.25 642.394 556.582C638.665 555.563 634.638 554.166 630.798 553.774C618.372 552.505 604.729 553.596 592.19 553.581L509.193 553.551L457.5 553.526C448.328 553.493 439.105 552.901 429.949 553.6C426.151 553.89 422.829 554.82 419.489 556.668C410.619 561.576 409.069 568.133 403.402 575.492Z"/>
	<path fill="#FAD43E" transform="scale(0.666667 0.666992)" d="M906.565 830.941C907.505 828.407 908.232 826.215 908.625 823.536C913.157 792.61 927.48 766.562 952.831 747.754C983.196 725.226 1021.98 721.102 1057.12 734.342C1067.96 738.427 1078.34 744.518 1088.2 750.562C1091.98 752.883 1098.93 760.747 1102.82 761.117L1103.75 761.176C1107.84 765.207 1110.85 770.805 1113.35 775.924C1120.88 791.34 1124.24 808.821 1124.11 825.952C1124.1 827.17 1124.09 829.36 1123.63 830.458L1123.32 830.882C1121.35 833.87 1121.34 837.634 1120.7 841.063C1120.19 843.816 1119.13 846.485 1118.03 849.052C1109.71 868.437 1098.62 891.442 1081.81 904.829C1070.87 913.542 1057.47 918.642 1043.95 921.758C1015.51 928.317 983.315 924.431 958.409 908.466C953.202 905.129 947.979 901.49 943.305 897.435C940.096 894.651 936.842 890.63 933.256 888.448C931.397 887.316 929.305 887.095 927.187 886.858C914.038 872.937 907.201 849.794 906.565 830.941Z"/>
	<path fill="#00313B" transform="scale(0.666667 0.666992)" d="M1009.55 739.932C1030.38 737.832 1050.48 743.482 1067.46 755.797C1086.71 769.754 1098.38 791.754 1101.92 814.983C1105.08 835.745 1097.9 859.956 1085.34 876.627C1069.63 897.488 1047.06 907.638 1021.78 911.291C1001.58 911.78 982.021 907.742 965.32 895.841C945.386 881.637 933.323 861.37 929.455 837.22C925.938 815.254 932.125 792.972 945.225 775.163C960.753 754.053 984.255 743.797 1009.55 739.932Z"/>
	<path fill="#E87F21" transform="scale(0.666667 0.666992)" d="M1063.7 763.352C1079.66 775.793 1090.92 793.208 1093.45 813.574C1096.01 834.182 1090.93 856.256 1078.07 872.781C1065.26 889.246 1045.86 900.748 1025.05 903.106C1004.19 905.468 982.032 899.152 965.737 885.908C952.064 874.795 939.7 856.162 937.725 838.421L937.446 823.541C948.779 840.862 965.682 861.578 986.213 867.948L986.222 868.553C989.635 870.14 993.198 871.977 996.854 872.902C1001.17 873.995 1005.85 874.131 1010.07 875.515L1010.05 880.069L1011.14 881.994C1013.39 882.322 1015.5 882.683 1017.79 882.462L1020.12 881.578C1021.15 879.655 1020.72 877.348 1020.6 875.23C1023.89 873.527 1027.97 873.585 1031.55 872.729C1041.71 870.297 1048.02 864.832 1053.4 856.052C1055.4 849.708 1056.57 842.461 1053.4 836.253L1053.01 833.946L1051.9 833.637C1059.78 832.194 1067.99 831.172 1073.38 824.505C1079.01 817.538 1081.62 807.189 1080.64 798.36C1079.33 786.577 1070.19 777.097 1061.32 770.063L1053.23 764.104C1054.07 763.715 1053.83 763.692 1054.59 763.713C1057.56 763.794 1060.08 764.06 1063.03 763.49L1063.7 763.352Z"/>
	<path fill="#00313B" transform="scale(0.666667 0.666992)" d="M986.222 868.553C989.635 870.14 993.198 871.977 996.854 872.902C1001.17 873.995 1005.85 874.131 1010.07 875.515L1010.05 880.069C1003.57 879.26 995.327 876.937 990.024 873.066C988.307 871.813 986.575 870.68 986.222 868.553Z"/>
	<path fill="#00313B" transform="scale(0.666667 0.666992)" d="M1053.01 833.946C1057.09 837.066 1059.61 842.134 1060.33 847.187C1061.34 854.2 1058.95 861.061 1054.67 866.567C1051.43 870.732 1047 874.104 1042.11 876.072C1038.39 877.568 1034.56 878.523 1030.64 879.294C1030.35 879.352 1027.68 879.791 1027.65 879.828C1027.1 880.566 1027.03 886.964 1026.91 888.301C1022.02 887.986 1016.85 887.988 1012.04 887.092C1011.38 885.333 1011.07 885.169 1011.75 883.341L1017.79 882.462L1020.12 881.578C1021.15 879.655 1020.72 877.348 1020.6 875.23C1023.89 873.527 1027.97 873.585 1031.55 872.729C1041.71 870.297 1048.02 864.832 1053.4 856.052C1055.4 849.708 1056.57 842.461 1053.4 836.253L1053.01 833.946Z"/>
	<path fill="#F9AD26" transform="scale(0.666667 0.666992)" d="M937.446 823.541C937.188 808.919 942.371 793.661 950.981 781.824C964.725 762.93 984.918 751.768 1007.93 748.385C1027.78 745.466 1047.88 751.374 1063.7 763.352L1063.03 763.49C1060.08 764.06 1057.56 763.794 1054.59 763.713C1053.83 763.692 1054.07 763.715 1053.23 764.104L1061.32 770.063C1070.19 777.097 1079.33 786.577 1080.64 798.36C1081.62 807.189 1079.01 817.538 1073.38 824.505C1067.99 831.172 1059.78 832.194 1051.9 833.637L1053.01 833.946L1053.4 836.253C1056.57 842.461 1055.4 849.708 1053.4 856.052C1048.02 864.832 1041.71 870.297 1031.55 872.729C1027.97 873.585 1023.89 873.527 1020.6 875.23C1020.72 877.348 1021.15 879.655 1020.12 881.578L1017.79 882.462C1015.5 882.683 1013.39 882.322 1011.14 881.994L1010.05 880.069L1010.07 875.515C1005.85 874.131 1001.17 873.995 996.854 872.902C993.198 871.977 989.635 870.14 986.222 868.553L986.213 867.948C965.682 861.578 948.779 840.862 937.446 823.541Z"/>
	<path fill="#00313B" transform="scale(0.666667 0.666992)" d="M985.142 826.188C989.157 828.327 993.23 830.556 997.64 831.772C1001.42 832.814 1007.08 832.647 1010.05 835.112L1009.88 837.982C1009.05 838.275 1008.52 838.473 1007.62 838.46C998.835 838.329 991.243 831.76 985.142 826.188Z"/>
	<path fill="#00313B" transform="scale(0.666667 0.666992)" d="M1044.19 785.533C1047.35 785.933 1049.66 788.832 1051.57 791.224C1053.99 794.26 1058.1 802.176 1057.73 806.033C1053.6 807.321 1049.36 808.957 1045.01 809.134C1042.76 807.952 1041.05 806.819 1039.18 805.064L1035.58 800.318C1040.4 798.473 1044.62 795.728 1048.66 792.561C1047.56 790.024 1045.77 787.791 1044.19 785.533Z"/>
	<path fill="#FCF075" transform="scale(0.666667 0.666992)" d="M1035.58 800.318C1040.4 798.473 1044.62 795.728 1048.66 792.561L1052.16 799.986L1039.18 805.064L1035.58 800.318Z"/>
	<path fill="#FEFEFC" transform="scale(0.666667 0.666992)" d="M1011.13 853.627L1010.79 831.937C1007.8 830.073 1001.29 829.992 997.65 828.968C990.653 826.996 983.936 824.65 980.268 817.901C976.78 811.486 976.012 802.655 978.265 795.708C980.619 788.449 985.214 783.356 991.94 779.869C997.205 777.139 1002.99 775.973 1008.72 774.584L1009.33 765.232L1020.87 765.441L1021.09 774.668C1023.79 775.942 1026.89 776.44 1029.71 777.454C1034.82 779.291 1040.03 782.027 1044.19 785.533C1045.77 787.791 1047.56 790.024 1048.66 792.561C1044.62 795.728 1040.4 798.473 1035.58 800.318L1031.86 795.995L1024.05 796.972C1023.2 798.19 1023.61 800.059 1023.64 801.532C1023.72 806.334 1024.78 813.975 1023.01 818.275C1033.27 820.293 1043.75 821.465 1050.1 830.803L1051.9 833.637L1053.01 833.946L1053.4 836.253C1056.57 842.461 1055.4 849.708 1053.4 856.052C1048.02 864.832 1041.71 870.297 1031.55 872.729C1027.97 873.585 1023.89 873.527 1020.6 875.23C1020.72 877.348 1021.15 879.655 1020.12 881.578L1017.79 882.462C1015.5 882.683 1013.39 882.322 1011.14 881.994L1010.05 880.069L1010.07 875.515C1005.85 874.131 1001.17 873.995 996.854 872.902C993.198 871.977 989.635 870.14 986.222 868.553L986.213 867.948L985.539 865.338C979.028 861.078 976.856 855.106 974.214 848.162L990.41 844.331C991.084 844.906 990.978 844.679 991.295 845.364C992.6 848.181 993.528 850.543 995.559 852.95L996.028 853.487C999.939 852.428 1007.57 851.74 1011.13 853.627Z"/>
	<path fill="#E87F21" transform="scale(0.666667 0.666992)" d="M996.028 853.487C999.939 852.428 1007.57 851.74 1011.13 853.627L1011.06 854.939C1010.86 857.117 1010.8 858.264 1009.12 859.675C1003.89 858.924 1000.15 856.705 996.028 853.487Z"/>
	<path fill="#FCF075" transform="scale(0.666667 0.666992)" d="M1053.4 836.253C1056.57 842.461 1055.4 849.708 1053.4 856.052L1045.45 857.168C1049.25 850.423 1051.99 843.859 1053.4 836.253Z"/>
	<path fill="#00313B" transform="scale(0.666667 0.666992)" d="M1019.98 791.771L1027.45 792.303L1031.86 795.995L1024.05 796.972C1023.2 798.19 1023.61 800.059 1023.64 801.532C1023.72 806.334 1024.78 813.975 1023.01 818.275L1021.07 818.107C1019.53 815.789 1020.04 813.07 1020.03 810.319L1019.98 791.771Z"/>
	<path fill="#FAD43E" transform="scale(0.666667 0.666992)" d="M995.568 805.014C994.881 801.525 994.018 797.547 996.001 794.294C997.615 791.645 1002.31 789.863 1005.18 789.106C1013.24 786.987 1020.42 788.165 1027.45 792.303L1019.98 791.771C1017.8 790.709 1016.03 790.238 1013.62 789.972L1011.81 790.693C1011.42 791.717 1011.02 792.709 1010.78 793.778C1006.81 793.47 1003.22 794.141 1000.14 796.856C997.812 798.917 996.463 802.109 995.568 805.014Z"/>
	<path fill="#00313B" transform="scale(0.666667 0.666992)" d="M1023.02 859.502C1021.62 859.478 1021.38 859.318 1020.17 858.585L1020.13 832.799C1026.83 834.192 1030.37 834.811 1035.03 839.95L1024.33 839.206C1024.32 843.261 1025.31 856.92 1023.02 859.502Z"/>
	<path fill="#E87F21" transform="scale(0.666667 0.666992)" d="M1035.03 839.95C1036.66 843.027 1037.26 847.149 1036.25 850.538C1036.02 851.319 1035.6 851.917 1035.16 852.583L1034.71 853.271C1032.77 856.046 1028.1 858.833 1024.8 859.496C1024.17 859.622 1023.65 859.572 1023.02 859.502C1025.31 856.92 1024.32 843.261 1024.33 839.206L1035.03 839.95Z"/>
	<path fill="#F9AD26" transform="scale(0.666667 0.666992)" d="M995.568 805.014C996.463 802.109 997.812 798.917 1000.14 796.856C1003.22 794.141 1006.81 793.47 1010.78 793.778L1010.97 797.06L1010.99 817.044C1007.79 815.873 1002.85 814.644 1000.32 812.407C998.306 810.808 996.839 807.296 995.568 805.014Z"/>
	<path fill="#00313B" transform="scale(0.666667 0.666992)" d="M995.568 805.014C996.463 802.109 997.812 798.917 1000.14 796.856C1003.22 794.141 1006.81 793.47 1010.78 793.778L1010.97 797.06C1007.7 798.093 1003.46 799.127 1001.66 802.349C999.987 805.352 1000.74 809.148 1000.32 812.407C998.306 810.808 996.839 807.296 995.568 805.014Z"/>
	<path fill="#FAD43E" transform="scale(0.666667 0.666992)" d="M1053.4 856.052C1048.02 864.832 1041.71 870.297 1031.55 872.729C1027.97 873.585 1023.89 873.527 1020.6 875.23C1020.72 877.348 1021.15 879.655 1020.12 881.578L1017.79 882.462C1015.5 882.683 1013.39 882.322 1011.14 881.994L1010.05 880.069L1010.07 875.515C1005.85 874.131 1001.17 873.995 996.854 872.902C993.198 871.977 989.635 870.14 986.222 868.553L986.213 867.948L985.539 865.338C992.281 867.576 998.608 868.883 1005.71 869.207C1015.58 869.658 1028.16 868.946 1036.95 864.056C1040.05 862.336 1042.83 859.539 1045.45 857.168L1053.4 856.052Z"/>
	<path fill="#FCF075" transform="scale(0.666667 0.666992)" d="M1010.07 875.515C1010.43 874.039 1010.32 872.814 1011.82 872.073C1013.78 871.098 1017.28 870.713 1019.36 871.338C1019.7 872.689 1020.07 873.941 1020.6 875.23C1020.72 877.348 1021.15 879.655 1020.12 881.578L1017.79 882.462C1015.5 882.683 1013.39 882.322 1011.14 881.994L1010.05 880.069L1010.07 875.515Z"/>
	<path fill="#455067" transform="scale(0.666667 0.666992)" d="M475.466 527.279L474.893 472.352C475.108 460.464 478.219 450.835 487.08 442.567C492.253 437.741 500.09 433.608 507.139 432.752C521.5 431.007 536.957 432.064 551.452 432.083L644.395 432.443L807.538 432.003L960.977 431.309C948.715 439.242 938.698 449.429 927.87 459.109L875.632 505.637L767.541 601.316L698.085 662.681L698.235 622.128C698.244 612.834 699.028 602.573 696.74 593.484C695.691 589.318 692.957 584.31 689.969 581.213C686.618 577.74 682.215 575.293 677.625 573.887C676.123 573.427 671.248 572.812 670.458 572.119C670.252 571.939 669.431 565.573 669.287 564.797C666.092 547.627 653.537 536.257 637.547 530.902C629.76 528.293 619.139 529.532 610.943 529.555L572.083 529.603L494.228 529.755L482.636 529.753C479.293 529.551 478.014 529.818 475.466 527.279Z"/>
	<path fill="#67849E" transform="scale(0.666667 0.666992)" d="M482.636 529.753L482.306 492.646C482.234 482.874 481.442 472.525 484.123 463.028C485.543 457.997 488.964 452.693 492.595 448.985C502.547 438.82 516.822 435.053 530.691 435.093L552.521 435.481C550.628 436.924 548.144 436.73 545.858 436.982L532.773 438.779C513.214 442.24 497.149 456.138 494.397 476.366C493.257 484.741 493.844 493.015 493.901 501.42L494.228 529.755L482.636 529.753Z"/>
	<path fill="#13C2A9" transform="scale(0.666667 0.666992)" d="M308.6 342.96C314.089 337.255 318.649 331.078 323.711 325.019L346.623 299.151C390.766 252.271 443.427 211.664 501.616 183.734C644.816 115 816.967 103.281 967.161 156.36C1050 185.636 1124.47 233.611 1185.02 297.25L1204.65 318.881C1207.34 321.995 1210.99 325.415 1212.77 329.136C1201.9 332.36 1190.95 335.523 1180.58 340.154C1154.31 351.882 1128.69 371.224 1108.83 391.958C1093.31 375.172 1074.63 363.223 1051.13 362.47L1021.26 362.294C1021.47 351.769 1022.09 340.948 1021.25 330.456C1017.84 288.225 999.761 243.943 970.261 213.229C932.192 173.594 882.647 149.592 827.25 148.671C774.737 147.799 721.575 168.291 683.965 205.071C650.973 237.336 625.852 286.127 625.553 333.002L626.393 362.792L535.163 363.056L504.282 363.088C495.244 363.1 486.386 362.936 477.545 365.149C465.968 368.046 455.086 374.772 446.672 383.195C440.297 389.577 435.039 397.358 431.664 405.738C430.332 409.045 429.51 415.517 427.297 417.982C426.275 419.121 424.05 420.286 422.766 421.212L412.452 429.113C399.377 439.93 388.048 453.965 379.235 468.398C374.765 451.951 370.845 435.686 364.752 419.716C353.33 389.78 334.232 362.409 308.6 342.96Z"/>
	<path fill="#00313B" transform="scale(0.666667 0.666992)" d="M417.932 266.322C422.644 270.823 426.801 276.787 431.074 281.77C438.075 289.935 446.019 297.814 454.285 304.682L418.045 342.502L380.978 304.992C395.159 293.816 406.749 280.396 417.932 266.322Z"/>
	<path fill="#6FFBF2" transform="scale(0.666667 0.666992)" d="M417.921 289.388C422.282 295.386 426.379 300.312 431.729 305.46C426.541 310.076 422.156 314.82 418.184 320.518C414.018 314.52 409.38 309.919 403.67 305.453C409.561 300.578 413.701 295.75 417.921 289.388Z"/>
</svg>
